<svg width="800" height="400" viewBox="0 0 800 400" xmlns="http://www.w3.org/2000/svg"><mask id="satori_om-id"><rect x="0" y="0" width="800" height="400" fill="#fff"/></mask><rect x="0" y="0" width="800" height="400" fill="#fff"/><mask id="satori_om-id-0"><rect x="0" y="108" width="800" height="184" fill="#fff"/></mask><rect x="0" y="108" width="800" height="184" fill="#f9fafb"/><mask id="satori_om-id-0-0"><rect x="0" y="108" width="800" height="184" fill="#fff"/></mask><mask id="satori_om-id-0-0-0"><rect x="32" y="160" width="477" height="80" fill="#fff"/></mask><mask id="satori_om-id-0-0-0-0"><rect x="32" y="160" width="477" height="40" fill="#fff"/></mask><path fill="#111827" d="M45.4 171.9L38.8 192.1L32.9 192.1L41.9 165.9L49.0 165.9L58.1 192.1L52.1 192.1L45.6 171.9L45.4 171.9ZM38.4 186.1L38.4 181.8L52.4 181.8L52.4 186.1L38.4 186.1ZM68.1 199.9L68.1 199.9Q65.5 199.9 63.6 199.1Q61.7 198.4 60.6 197.2Q59.5 195.9 59.1 194.4L59.1 194.4L64.2 193.7Q64.4 194.3 64.9 194.8Q65.4 195.3 66.2 195.6Q67.1 195.9 68.3 195.9L68.3 195.9Q70.0 195.9 71.2 195.1Q72.3 194.2 72.3 192.2L72.3 192.2L72.3 188.6L72.1 188.6Q71.8 189.4 71.0 190.2Q70.3 190.9 69.2 191.3Q68.1 191.8 66.5 191.8L66.5 191.8Q64.3 191.8 62.5 190.8Q60.7 189.7 59.6 187.6Q58.5 185.5 58.5 182.2L58.5 182.2Q58.5 178.9 59.6 176.7Q60.7 174.4 62.5 173.3Q64.3 172.2 66.5 172.2L66.5 172.2Q68.1 172.2 69.3 172.7Q70.4 173.3 71.1 174.1Q71.7 175.0 72.1 175.7L72.1 175.7L72.3 175.7L72.3 172.4L77.7 172.4L77.7 192.3Q77.7 194.8 76.5 196.5Q75.3 198.2 73.1 199.0Q70.9 199.9 68.1 199.9ZM68.2 187.7L68.2 187.7Q69.6 187.7 70.5 187.1Q71.4 186.4 71.9 185.2Q72.4 183.9 72.4 182.2L72.4 182.2Q72.4 180.5 71.9 179.2Q71.4 177.9 70.5 177.2Q69.6 176.5 68.2 176.5L68.2 176.5Q66.9 176.5 66.0 177.2Q65.1 178.0 64.6 179.2Q64.1 180.5 64.1 182.2L64.1 182.2Q64.1 183.9 64.6 185.1Q65.1 186.4 66.0 187.0Q66.9 187.7 68.2 187.7ZM86.6 192.1L81.2 192.1L81.2 172.4L86.6 172.4L86.6 192.1ZM83.9 169.9L83.9 169.9Q82.7 169.9 81.8 169.1Q81.0 168.3 81.0 167.2L81.0 167.2Q81.0 166.0 81.8 165.2Q82.7 164.4 83.9 164.4L83.9 164.4Q85.1 164.4 86.0 165.2Q86.8 166.0 86.8 167.2L86.8 167.2Q86.8 168.3 86.0 169.1Q85.1 169.9 83.9 169.9ZM90.1 165.9L95.5 165.9L95.5 192.1L90.1 192.1L90.1 165.9ZM107.9 192.5L107.9 192.5Q104.9 192.5 102.7 191.2Q100.5 190.0 99.3 187.7Q98.2 185.5 98.2 182.4L98.2 182.4Q98.2 179.3 99.3 177.0Q100.5 174.7 102.7 173.5Q104.8 172.2 107.7 172.2L107.7 172.2Q109.6 172.2 111.3 172.8Q113.0 173.4 114.3 174.7Q115.5 175.9 116.2 177.8Q116.9 179.7 116.9 182.2L116.9 182.2L116.9 183.7L100.3 183.7L100.3 180.3L111.8 180.3Q111.8 179.1 111.3 178.2Q110.8 177.3 109.9 176.8Q109.0 176.3 107.8 176.3L107.8 176.3Q106.5 176.3 105.6 176.8Q104.6 177.4 104.1 178.3Q103.6 179.3 103.5 180.5L103.5 180.5L103.5 183.7Q103.5 185.1 104.1 186.2Q104.6 187.3 105.6 187.8Q106.6 188.4 108.0 188.4L108.0 188.4Q108.9 188.4 109.7 188.1Q110.4 187.9 110.9 187.4Q111.5 186.9 111.8 186.1L111.8 186.1L116.8 186.5Q116.4 188.3 115.2 189.6Q114.1 191.0 112.2 191.7Q110.3 192.5 107.9 192.5Z M137.3 192.1L137.3 192.1L128.0 192.1L128.0 165.9L137.4 165.9Q141.3 165.9 144.2 167.5Q147.1 169.0 148.6 172.0Q150.1 174.9 150.1 179.0L150.1 179.0Q150.1 183.1 148.6 186.0Q147.1 188.9 144.2 190.5Q141.3 192.1 137.3 192.1ZM133.6 170.6L133.6 187.3L137.1 187.3Q139.5 187.3 141.2 186.5Q142.9 185.6 143.8 183.7Q144.6 181.9 144.6 179.0L144.6 179.0Q144.6 176.1 143.8 174.2Q142.9 172.4 141.2 171.5Q139.6 170.6 137.1 170.6L137.1 170.6L133.6 170.6ZM162.2 192.5L162.2 192.5Q159.1 192.5 157.0 191.2Q154.8 190.0 153.6 187.7Q152.4 185.5 152.4 182.4L152.4 182.4Q152.4 179.3 153.6 177.0Q154.8 174.7 156.9 173.5Q159.1 172.2 162.0 172.2L162.0 172.2Q163.9 172.2 165.6 172.8Q167.3 173.4 168.5 174.7Q169.8 175.9 170.5 177.8Q171.2 179.7 171.2 182.2L171.2 182.2L171.2 183.7L154.6 183.7L154.6 180.3L166.1 180.3Q166.1 179.1 165.5 178.2Q165.0 177.3 164.1 176.8Q163.2 176.3 162.0 176.3L162.0 176.3Q160.8 176.3 159.8 176.8Q158.9 177.4 158.4 178.3Q157.8 179.3 157.8 180.5L157.8 180.5L157.8 183.7Q157.8 185.1 158.4 186.2Q158.9 187.3 159.9 187.8Q160.9 188.4 162.3 188.4L162.3 188.4Q163.2 188.4 163.9 188.1Q164.7 187.9 165.2 187.4Q165.7 186.9 166.0 186.1L166.0 186.1L171.1 186.5Q170.7 188.3 169.5 189.6Q168.3 191.0 166.5 191.7Q164.6 192.5 162.2 192.5ZM185.8 172.4L191.6 172.4L184.7 192.1L178.6 192.1L171.7 172.4L177.5 172.4L181.6 186.5L181.8 186.5L185.8 172.4ZM201.8 192.5L201.8 192.5Q198.7 192.5 196.6 191.2Q194.4 190.0 193.2 187.7Q192.0 185.5 192.0 182.4L192.0 182.4Q192.0 179.3 193.2 177.0Q194.4 174.7 196.5 173.5Q198.7 172.2 201.6 172.2L201.6 172.2Q203.5 172.2 205.2 172.8Q206.9 173.4 208.1 174.7Q209.4 175.9 210.1 177.8Q210.8 179.7 210.8 182.2L210.8 182.2L210.8 183.7L194.2 183.7L194.2 180.3L205.7 180.3Q205.7 179.1 205.2 178.2Q204.6 177.3 203.7 176.8Q202.8 176.3 201.6 176.3L201.6 176.3Q200.4 176.3 199.5 176.8Q198.5 177.4 198.0 178.3Q197.4 179.3 197.4 180.5L197.4 180.5L197.4 183.7Q197.4 185.1 198.0 186.2Q198.5 187.3 199.5 187.8Q200.5 188.4 201.9 188.4L201.9 188.4Q202.8 188.4 203.5 188.1Q204.3 187.9 204.8 187.4Q205.4 186.9 205.6 186.1L205.6 186.1L210.7 186.5Q210.3 188.3 209.1 189.6Q207.9 191.0 206.1 191.7Q204.2 192.5 201.8 192.5ZM213.4 165.9L218.9 165.9L218.9 192.1L213.4 192.1L213.4 165.9ZM231.2 192.5L231.2 192.5Q228.2 192.5 226.1 191.2Q223.9 189.9 222.7 187.6Q221.5 185.4 221.5 182.3L221.5 182.3Q221.5 179.3 222.7 177.0Q223.9 174.7 226.1 173.5Q228.2 172.2 231.2 172.2L231.2 172.2Q234.2 172.2 236.4 173.5Q238.5 174.7 239.7 177.0Q240.9 179.3 240.9 182.3L240.9 182.3Q240.9 185.4 239.7 187.6Q238.5 189.9 236.4 191.2Q234.2 192.5 231.2 192.5ZM231.2 188.2L231.2 188.2Q232.6 188.2 233.5 187.5Q234.4 186.7 234.9 185.4Q235.3 184.0 235.3 182.3L235.3 182.3Q235.3 180.6 234.9 179.2Q234.4 177.9 233.5 177.1Q232.6 176.3 231.2 176.3L231.2 176.3Q229.9 176.3 228.9 177.1Q228.0 177.9 227.5 179.2Q227.1 180.6 227.1 182.3L227.1 182.3Q227.1 184.0 227.5 185.4Q228.0 186.7 228.9 187.5Q229.9 188.2 231.2 188.2ZM249.0 199.4L243.5 199.4L243.5 172.4L248.9 172.4L248.9 175.7L249.1 175.7Q249.5 175.0 250.2 174.1Q250.9 173.3 252.0 172.7Q253.1 172.2 254.7 172.2L254.7 172.2Q256.9 172.2 258.7 173.3Q260.5 174.4 261.6 176.7Q262.7 178.9 262.7 182.3L262.7 182.3Q262.7 185.6 261.6 187.8Q260.6 190.1 258.8 191.2Q257.0 192.4 254.7 192.4L254.7 192.4Q253.1 192.4 252.0 191.9Q250.9 191.4 250.2 190.6Q249.5 189.8 249.1 188.9L249.1 188.9L249.0 188.9L249.0 199.4ZM248.9 182.3L248.9 182.3Q248.9 184.0 249.3 185.3Q249.8 186.6 250.8 187.3Q251.7 188.1 253.0 188.1L253.0 188.1Q254.3 188.1 255.2 187.3Q256.2 186.6 256.6 185.3Q257.1 184.0 257.1 182.3L257.1 182.3Q257.1 180.6 256.6 179.3Q256.2 178.0 255.3 177.3Q254.3 176.5 253.0 176.5L253.0 176.5Q251.7 176.5 250.7 177.2Q249.8 177.9 249.3 179.2Q248.9 180.5 248.9 182.3ZM270.8 192.1L265.4 192.1L265.4 172.4L270.6 172.4L270.6 175.9L270.8 175.9Q271.4 174.2 272.9 173.2Q274.3 172.2 276.3 172.2L276.3 172.2Q278.3 172.2 279.7 173.2Q281.1 174.2 281.6 175.9L281.6 175.9L281.8 175.9Q282.4 174.2 284.0 173.2Q285.6 172.2 287.7 172.2L287.7 172.2Q290.5 172.2 292.2 173.9Q293.9 175.7 293.9 178.9L293.9 178.9L293.9 192.1L288.5 192.1L288.5 180.0Q288.5 178.3 287.6 177.5Q286.8 176.7 285.5 176.7L285.5 176.7Q284.0 176.7 283.1 177.6Q282.3 178.6 282.3 180.1L282.3 180.1L282.3 192.1L277.0 192.1L277.0 179.8Q277.0 178.4 276.2 177.5Q275.4 176.7 274.0 176.7L274.0 176.7Q273.1 176.7 272.4 177.1Q271.7 177.6 271.3 178.4Q270.8 179.2 270.8 180.3L270.8 180.3L270.8 192.1ZM306.3 192.5L306.3 192.5Q303.2 192.5 301.1 191.2Q298.9 190.0 297.7 187.7Q296.5 185.5 296.5 182.4L296.5 182.4Q296.5 179.3 297.7 177.0Q298.9 174.7 301.0 173.5Q303.2 172.2 306.1 172.2L306.1 172.2Q308.0 172.2 309.7 172.8Q311.4 173.4 312.6 174.7Q313.9 175.9 314.6 177.8Q315.3 179.7 315.3 182.2L315.3 182.2L315.3 183.7L298.7 183.7L298.7 180.3L310.2 180.3Q310.2 179.1 309.6 178.2Q309.1 177.3 308.2 176.8Q307.3 176.3 306.1 176.3L306.1 176.3Q304.9 176.3 304.0 176.8Q303.0 177.4 302.5 178.3Q301.9 179.3 301.9 180.5L301.9 180.5L301.9 183.7Q301.9 185.1 302.5 186.2Q303.0 187.3 304.0 187.8Q305.0 188.4 306.4 188.4L306.4 188.4Q307.3 188.4 308.0 188.1Q308.8 187.9 309.3 187.4Q309.9 186.9 310.1 186.1L310.1 186.1L315.2 186.5Q314.8 188.3 313.6 189.6Q312.4 191.0 310.6 191.7Q308.7 192.5 306.3 192.5ZM323.4 180.7L323.4 180.7L323.4 192.1L317.9 192.1L317.9 172.4L323.1 172.4L323.1 175.9L323.4 175.9Q324.0 174.2 325.5 173.2Q327.1 172.2 329.3 172.2L329.3 172.2Q331.3 172.2 332.8 173.1Q334.4 174.0 335.2 175.6Q336.0 177.3 336.0 179.6L336.0 179.6L336.0 192.1L330.6 192.1L330.6 180.6Q330.6 178.7 329.7 177.7Q328.7 176.7 327.1 176.7L327.1 176.7Q326.0 176.7 325.2 177.2Q324.3 177.7 323.9 178.6Q323.4 179.5 323.4 180.7ZM338.0 172.4L349.9 172.4L349.9 176.5L338.0 176.5L338.0 172.4ZM340.7 186.8L340.7 167.7L346.2 167.7L346.2 186.0Q346.2 186.8 346.4 187.2Q346.6 187.6 347.1 187.8Q347.5 188.0 348.0 188.0L348.0 188.0Q348.4 188.0 348.8 187.9Q349.2 187.8 349.4 187.8L349.4 187.8L350.2 191.8Q349.8 192.0 349.1 192.1Q348.3 192.3 347.3 192.4L347.3 192.4Q345.3 192.4 343.8 191.8Q342.4 191.2 341.5 190.0Q340.7 188.7 340.7 186.8L340.7 186.8ZM362.0 184.2L357.2 184.2L357.2 183.8Q357.2 181.6 357.6 180.2Q358.0 178.9 358.7 178.1Q359.5 177.3 360.6 176.6L360.6 176.6Q361.3 176.1 362.0 175.5Q362.6 175.0 363.0 174.3Q363.3 173.6 363.3 172.8L363.3 172.8Q363.3 171.9 362.9 171.3Q362.5 170.6 361.8 170.2Q361.1 169.9 360.2 169.9L360.2 169.9Q359.4 169.9 358.6 170.3Q357.9 170.6 357.4 171.3Q357.0 172.0 356.9 173.1L356.9 173.1L351.7 173.1Q351.8 170.5 352.9 168.9Q354.1 167.2 356.0 166.4Q357.9 165.5 360.2 165.5L360.2 165.5Q362.8 165.5 364.7 166.4Q366.7 167.2 367.8 168.8Q368.9 170.4 368.9 172.6L368.9 172.6Q368.9 174.1 368.4 175.3Q367.9 176.4 367.1 177.3Q366.2 178.2 365.0 178.9L365.0 178.9Q364.0 179.5 363.3 180.2Q362.7 180.8 362.4 181.7Q362.0 182.5 362.0 183.8L362.0 183.8L362.0 184.2ZM359.7 192.4L359.7 192.4Q358.4 192.4 357.5 191.5Q356.6 190.6 356.7 189.3L356.7 189.3Q356.6 188.1 357.5 187.2Q358.4 186.3 359.7 186.3L359.7 186.3Q360.9 186.3 361.9 187.2Q362.8 188.1 362.8 189.3L362.8 189.3Q362.8 190.2 362.3 190.9Q361.9 191.6 361.2 192.0Q360.5 192.4 359.7 192.4Z "/><mask id="satori_om-id-0-0-0-1"><rect x="32" y="200" width="477" height="40" fill="#fff"/></mask><path fill="#4f46e5" d="M57.4 215.1L57.4 215.1L51.8 215.1Q51.6 214.0 51.2 213.1Q50.7 212.3 49.9 211.7Q49.2 211.1 48.2 210.8Q47.3 210.4 46.1 210.4L46.1 210.4Q44.1 210.4 42.6 211.4Q41.1 212.4 40.3 214.4Q39.4 216.3 39.4 219.0L39.4 219.0Q39.4 221.8 40.3 223.7Q41.1 225.6 42.6 226.6Q44.1 227.5 46.1 227.5L46.1 227.5Q47.2 227.5 48.2 227.3Q49.1 227.0 49.9 226.4Q50.6 225.8 51.1 225.0Q51.6 224.2 51.8 223.1L51.8 223.1L57.4 223.2Q57.2 225.0 56.3 226.6Q55.4 228.3 54.0 229.6Q52.5 230.9 50.5 231.7Q48.5 232.4 46.0 232.4L46.0 232.4Q42.5 232.4 39.8 230.9Q37.0 229.3 35.4 226.3Q33.8 223.3 33.8 219.0L33.8 219.0Q33.8 214.7 35.4 211.7Q37.0 208.7 39.8 207.1Q42.6 205.5 46.0 205.5L46.0 205.5Q48.3 205.5 50.2 206.2Q52.2 206.8 53.7 208.0Q55.2 209.3 56.2 211.0Q57.1 212.8 57.4 215.1ZM69.2 232.5L69.2 232.5Q66.2 232.5 64.1 231.2Q61.9 229.9 60.7 227.6Q59.6 225.4 59.6 222.3L59.6 222.3Q59.6 219.3 60.7 217.0Q61.9 214.7 64.1 213.5Q66.2 212.2 69.2 212.2L69.2 212.2Q72.2 212.2 74.4 213.5Q76.5 214.7 77.7 217.0Q78.9 219.3 78.9 222.3L78.9 222.3Q78.9 225.4 77.7 227.6Q76.5 229.9 74.4 231.2Q72.2 232.5 69.2 232.5ZM69.2 228.2L69.2 228.2Q70.6 228.2 71.5 227.5Q72.4 226.7 72.9 225.4Q73.4 224.0 73.4 222.3L73.4 222.3Q73.4 220.6 72.9 219.2Q72.4 217.9 71.5 217.1Q70.6 216.3 69.2 216.3L69.2 216.3Q67.9 216.3 67.0 217.1Q66.0 217.9 65.6 219.2Q65.1 220.6 65.1 222.3L65.1 222.3Q65.1 224.0 65.6 225.4Q66.0 226.7 67.0 227.5Q67.9 228.2 69.2 228.2ZM87.0 220.7L87.0 220.7L87.0 232.1L81.5 232.1L81.5 212.4L86.7 212.4L86.7 215.9L87.0 215.9Q87.6 214.2 89.1 213.2Q90.7 212.2 92.9 212.2L92.9 212.2Q94.9 212.2 96.4 213.1Q98.0 214.0 98.8 215.6Q99.6 217.3 99.6 219.6L99.6 219.6L99.6 232.1L94.2 232.1L94.2 220.6Q94.2 218.7 93.3 217.7Q92.3 216.7 90.7 216.7L90.7 216.7Q89.6 216.7 88.8 217.2Q87.9 217.7 87.5 218.6Q87.0 219.5 87.0 220.7ZM101.6 212.4L113.5 212.4L113.5 216.5L101.6 216.5L101.6 212.4ZM104.3 226.8L104.3 207.7L109.8 207.7L109.8 226.0Q109.8 226.8 110.0 227.2Q110.2 227.6 110.7 227.8Q111.1 228.0 111.6 228.0L111.6 228.0Q112.0 228.0 112.4 227.9Q112.8 227.8 113.0 227.8L113.0 227.8L113.8 231.8Q113.4 232.0 112.7 232.1Q111.9 232.3 110.9 232.4L110.9 232.4Q108.9 232.4 107.4 231.8Q106.0 231.2 105.1 230.0Q104.3 228.7 104.3 226.8L104.3 226.8ZM121.7 232.5L121.7 232.5Q119.8 232.5 118.4 231.8Q116.9 231.1 116.0 229.8Q115.2 228.5 115.2 226.6L115.2 226.6Q115.2 225.0 115.8 223.8Q116.4 222.7 117.4 222.1Q118.5 221.4 119.8 221.0Q121.1 220.7 122.6 220.6L122.6 220.6Q124.3 220.4 125.3 220.2Q126.4 220.1 126.9 219.7Q127.3 219.4 127.3 218.8L127.3 218.8L127.3 218.7Q127.3 217.5 126.6 216.8Q125.8 216.2 124.4 216.2L124.4 216.2Q122.9 216.2 122.1 216.8Q121.2 217.5 120.9 218.4L120.9 218.4L115.9 218.0Q116.3 216.2 117.4 214.9Q118.5 213.6 120.3 212.9Q122.1 212.2 124.4 212.2L124.4 212.2Q126.1 212.2 127.6 212.6Q129.1 213.0 130.2 213.8Q131.4 214.6 132.1 215.8Q132.8 217.1 132.8 218.8L132.8 218.8L132.8 232.1L127.6 232.1L127.6 229.4L127.5 229.4Q127.0 230.3 126.2 231.0Q125.4 231.7 124.3 232.1Q123.2 232.5 121.7 232.5ZM123.3 228.7L123.3 228.7Q124.5 228.7 125.4 228.2Q126.3 227.7 126.8 226.9Q127.4 226.1 127.4 225.1L127.4 225.1L127.4 223.0Q127.1 223.1 126.7 223.3Q126.2 223.4 125.7 223.5Q125.1 223.6 124.6 223.7Q124.0 223.8 123.6 223.9L123.6 223.9Q122.6 224.0 121.9 224.3Q121.2 224.6 120.8 225.1Q120.4 225.7 120.4 226.4L120.4 226.4Q120.4 227.5 121.2 228.1Q122.0 228.7 123.3 228.7ZM145.0 232.5L145.0 232.5Q142.0 232.5 139.8 231.2Q137.6 229.9 136.5 227.6Q135.3 225.3 135.3 222.3L135.3 222.3Q135.3 219.3 136.5 217.0Q137.6 214.8 139.8 213.5Q142.0 212.2 144.9 212.2L144.9 212.2Q147.5 212.2 149.4 213.1Q151.4 214.1 152.5 215.7Q153.6 217.4 153.7 219.7L153.7 219.7L148.6 219.7Q148.4 218.2 147.5 217.3Q146.5 216.4 145.0 216.4L145.0 216.4Q143.8 216.4 142.8 217.1Q141.9 217.8 141.4 219.1Q140.8 220.4 140.8 222.3L140.8 222.3Q140.8 224.1 141.4 225.5Q141.9 226.8 142.8 227.5Q143.8 228.2 145.0 228.2L145.0 228.2Q146.0 228.2 146.7 227.8Q147.5 227.4 148.0 226.7Q148.5 225.9 148.6 224.9L148.6 224.9L153.7 224.9Q153.6 227.1 152.5 228.8Q151.4 230.5 149.5 231.5Q147.6 232.5 145.0 232.5ZM155.0 212.4L166.8 212.4L166.8 216.5L155.0 216.5L155.0 212.4ZM157.6 226.8L157.6 207.7L163.1 207.7L163.1 226.0Q163.1 226.8 163.3 227.2Q163.6 227.6 164.0 227.8Q164.4 228.0 164.9 228.0L164.9 228.0Q165.3 228.0 165.7 227.9Q166.1 227.8 166.3 227.8L166.3 227.8L167.1 231.8Q166.7 232.0 166.0 232.1Q165.3 232.3 164.2 232.4L164.2 232.4Q162.2 232.4 160.7 231.8Q159.3 231.2 158.5 230.0Q157.6 228.7 157.6 226.8L157.6 226.8Z M196.7 232.1L176.7 232.1L176.7 228.8L189.8 210.5L176.7 210.5L176.7 205.9L196.7 205.9L196.7 209.2L183.6 227.5L196.7 227.5L196.7 232.1ZM200.1 205.9L205.6 205.9L205.6 232.1L200.1 232.1L200.1 205.9ZM214.8 232.1L209.3 232.1L209.3 205.9L219.6 205.9Q222.6 205.9 224.7 207.0Q226.8 208.0 227.9 209.9Q229.0 211.9 229.0 214.5L229.0 214.5Q229.0 217.1 227.9 218.9Q226.8 220.8 224.6 221.8Q222.5 222.8 219.5 222.8L219.5 222.8L212.6 222.8L212.6 218.4L218.6 218.4Q220.2 218.4 221.2 217.9Q222.3 217.5 222.8 216.6Q223.3 215.7 223.3 214.5L223.3 214.5Q223.3 213.1 222.8 212.3Q222.3 211.4 221.2 210.9Q220.2 210.4 218.6 210.4L218.6 210.4L214.8 210.4L214.8 232.1ZM217.5 220.2L223.4 220.2L229.9 232.1L223.8 232.1L217.5 220.2ZM255.1 215.1L255.1 215.1L249.5 215.1Q249.4 214.0 248.9 213.1Q248.4 212.3 247.7 211.7Q246.9 211.1 246.0 210.8Q245.0 210.4 243.9 210.4L243.9 210.4Q241.8 210.4 240.3 211.4Q238.8 212.4 238.0 214.4Q237.2 216.3 237.2 219.0L237.2 219.0Q237.2 221.8 238.0 223.7Q238.8 225.6 240.4 226.6Q241.9 227.5 243.8 227.5L243.8 227.5Q245.0 227.5 245.9 227.3Q246.9 227.0 247.6 226.4Q248.3 225.8 248.8 225.0Q249.3 224.2 249.5 223.1L249.5 223.1L255.1 223.2Q254.9 225.0 254.0 226.6Q253.2 228.3 251.7 229.6Q250.3 230.9 248.3 231.7Q246.3 232.4 243.8 232.4L243.8 232.4Q240.2 232.4 237.5 230.9Q234.7 229.3 233.1 226.3Q231.6 223.3 231.6 219.0L231.6 219.0Q231.6 214.7 233.2 211.7Q234.8 208.7 237.5 207.1Q240.3 205.5 243.8 205.5L243.8 205.5Q246.0 205.5 248.0 206.2Q249.9 206.8 251.4 208.0Q252.9 209.3 253.9 211.0Q254.8 212.8 255.1 215.1ZM282.3 219.0L282.3 219.0Q282.3 223.3 280.6 226.3Q279.0 229.3 276.2 230.9Q273.5 232.4 270.0 232.4L270.0 232.4Q266.5 232.4 263.7 230.9Q261.0 229.3 259.3 226.3Q257.7 223.3 257.7 219.0L257.7 219.0Q257.7 214.7 259.3 211.7Q261.0 208.7 263.7 207.1Q266.5 205.5 270.0 205.5L270.0 205.5Q273.5 205.5 276.2 207.1Q279.0 208.7 280.6 211.7Q282.3 214.7 282.3 219.0ZM276.6 219.0L276.6 219.0Q276.6 216.2 275.8 214.3Q275.0 212.4 273.5 211.4Q272.0 210.4 270.0 210.4L270.0 210.4Q268.0 210.4 266.5 211.4Q265.0 212.4 264.2 214.3Q263.3 216.2 263.3 219.0L263.3 219.0Q263.3 221.8 264.2 223.7Q265.0 225.6 266.5 226.6Q268.0 227.5 270.0 227.5L270.0 227.5Q272.0 227.5 273.5 226.6Q275.0 225.6 275.8 223.7Q276.6 221.8 276.6 219.0ZM301.8 205.9L307.3 205.9L307.3 232.1L302.6 232.1L291.2 215.6L291.0 215.6L291.0 232.1L285.4 232.1L285.4 205.9L290.3 205.9L301.6 222.4L301.8 222.4L301.8 205.9ZM318.0 210.5L310.0 210.5L310.0 205.9L331.5 205.9L331.5 210.5L323.5 210.5L323.5 232.1L318.0 232.1L318.0 210.5ZM340.1 232.5L340.1 232.5Q337.1 232.5 334.9 231.2Q332.8 230.0 331.6 227.7Q330.4 225.5 330.4 222.4L330.4 222.4Q330.4 219.3 331.6 217.0Q332.8 214.7 334.9 213.5Q337.0 212.2 339.9 212.2L339.9 212.2Q341.9 212.2 343.6 212.8Q345.2 213.4 346.5 214.7Q347.8 215.9 348.5 217.8Q349.2 219.7 349.2 222.2L349.2 222.2L349.2 223.7L332.6 223.7L332.6 220.3L344.0 220.3Q344.0 219.1 343.5 218.2Q343.0 217.3 342.1 216.8Q341.2 216.3 340.0 216.3L340.0 216.3Q338.8 216.3 337.8 216.8Q336.9 217.4 336.3 218.3Q335.8 219.3 335.8 220.5L335.8 220.5L335.8 223.7Q335.8 225.1 336.3 226.2Q336.9 227.3 337.9 227.8Q338.9 228.4 340.2 228.4L340.2 228.4Q341.1 228.4 341.9 228.1Q342.7 227.9 343.2 227.4Q343.7 226.9 344.0 226.1L344.0 226.1L349.0 226.5Q348.7 228.3 347.5 229.6Q346.3 231.0 344.4 231.7Q342.6 232.5 340.1 232.5ZM360.7 232.5L360.7 232.5Q357.7 232.5 355.5 231.2Q353.3 229.9 352.2 227.6Q351.0 225.3 351.0 222.3L351.0 222.3Q351.0 219.3 352.2 217.0Q353.4 214.8 355.5 213.5Q357.7 212.2 360.7 212.2L360.7 212.2Q363.2 212.2 365.2 213.1Q367.1 214.1 368.2 215.7Q369.3 217.4 369.5 219.7L369.5 219.7L364.3 219.7Q364.1 218.2 363.2 217.3Q362.2 216.4 360.8 216.4L360.8 216.4Q359.5 216.4 358.5 217.1Q357.6 217.8 357.1 219.1Q356.6 220.4 356.6 222.3L356.6 222.3Q356.6 224.1 357.1 225.5Q357.6 226.8 358.5 227.5Q359.5 228.2 360.8 228.2L360.8 228.2Q361.7 228.2 362.4 227.8Q363.2 227.4 363.7 226.7Q364.2 225.9 364.3 224.9L364.3 224.9L369.5 224.9Q369.3 227.1 368.2 228.8Q367.1 230.5 365.2 231.5Q363.3 232.5 360.7 232.5ZM377.5 220.7L377.5 220.7L377.5 232.1L372.1 232.1L372.1 205.9L377.4 205.9L377.4 215.9L377.6 215.9Q378.2 214.2 379.7 213.2Q381.2 212.2 383.5 212.2L383.5 212.2Q385.5 212.2 387.0 213.1Q388.6 214.0 389.4 215.6Q390.3 217.3 390.2 219.6L390.2 219.6L390.2 232.1L384.8 232.1L384.8 220.6Q384.8 218.7 383.9 217.7Q383.0 216.7 381.3 216.7L381.3 216.7Q380.2 216.7 379.3 217.2Q378.5 217.7 378.0 218.6Q377.5 219.5 377.5 220.7Z M402.6 212.4L414.4 212.4L414.4 216.5L402.6 216.5L402.6 212.4ZM405.2 226.8L405.2 207.7L410.7 207.7L410.7 226.0Q410.7 226.8 410.9 227.2Q411.2 227.6 411.6 227.8Q412.0 228.0 412.5 228.0L412.5 228.0Q412.9 228.0 413.3 227.9Q413.7 227.8 413.9 227.8L413.9 227.8L414.7 231.8Q414.3 232.0 413.6 232.1Q412.9 232.3 411.8 232.4L411.8 232.4Q409.8 232.4 408.3 231.8Q406.9 231.2 406.1 230.0Q405.2 228.7 405.2 226.8L405.2 226.8ZM425.7 232.5L425.7 232.5Q422.7 232.5 420.6 231.2Q418.4 229.9 417.2 227.6Q416.0 225.4 416.0 222.3L416.0 222.3Q416.0 219.3 417.2 217.0Q418.4 214.7 420.6 213.5Q422.7 212.2 425.7 212.2L425.7 212.2Q428.7 212.2 430.8 213.5Q433.0 214.7 434.2 217.0Q435.4 219.3 435.4 222.3L435.4 222.3Q435.4 225.4 434.2 227.6Q433.0 229.9 430.8 231.2Q428.7 232.5 425.7 232.5ZM425.7 228.2L425.7 228.2Q427.1 228.2 428.0 227.5Q428.9 226.7 429.4 225.4Q429.8 224.0 429.8 222.3L429.8 222.3Q429.8 220.6 429.4 219.2Q428.9 217.9 428.0 217.1Q427.1 216.3 425.7 216.3L425.7 216.3Q424.4 216.3 423.4 217.1Q422.5 217.9 422.0 219.2Q421.6 220.6 421.6 222.3L421.6 222.3Q421.6 224.0 422.0 225.4Q422.5 226.7 423.4 227.5Q424.4 228.2 425.7 228.2ZM445.3 232.4L445.3 232.4Q443.0 232.4 441.2 231.2Q439.4 230.1 438.3 227.8Q437.3 225.6 437.3 222.3L437.3 222.3Q437.3 218.9 438.4 216.7Q439.5 214.4 441.3 213.3Q443.1 212.2 445.2 212.2L445.2 212.2Q446.9 212.2 448.0 212.7Q449.1 213.3 449.8 214.1Q450.5 215.0 450.8 215.7L450.8 215.7L451.0 215.7L451.0 205.9L456.4 205.9L456.4 232.1L451.1 232.1L451.1 228.9L450.8 228.9Q450.4 229.8 449.7 230.6Q449.1 231.4 447.9 231.9Q446.8 232.4 445.3 232.4ZM447.0 228.1L447.0 228.1Q448.3 228.1 449.2 227.3Q450.1 226.6 450.6 225.3Q451.1 224.0 451.1 222.3L451.1 222.3Q451.1 220.5 450.6 219.2Q450.1 217.9 449.2 217.2Q448.3 216.5 447.0 216.5L447.0 216.5Q445.6 216.5 444.7 217.3Q443.8 218.0 443.3 219.3Q442.9 220.6 442.9 222.3L442.9 222.3Q442.9 224.0 443.3 225.3Q443.8 226.6 444.7 227.3Q445.6 228.1 447.0 228.1ZM465.6 232.5L465.6 232.5Q463.7 232.5 462.2 231.8Q460.8 231.1 459.9 229.8Q459.1 228.5 459.1 226.6L459.1 226.6Q459.1 225.0 459.7 223.8Q460.3 222.7 461.3 222.1Q462.3 221.4 463.7 221.0Q465.0 220.7 466.4 220.6L466.4 220.6Q468.2 220.4 469.2 220.2Q470.3 220.1 470.7 219.7Q471.2 219.4 471.2 218.8L471.2 218.8L471.2 218.7Q471.2 217.5 470.4 216.8Q469.7 216.2 468.3 216.2L468.3 216.2Q466.8 216.2 465.9 216.8Q465.1 217.5 464.8 218.4L464.8 218.4L459.8 218.0Q460.1 216.2 461.3 214.9Q462.4 213.6 464.2 212.9Q466.0 212.2 468.3 212.2L468.3 212.2Q469.9 212.2 471.4 212.6Q473.0 213.0 474.1 213.8Q475.3 214.6 476.0 215.8Q476.6 217.1 476.6 218.8L476.6 218.8L476.6 232.1L471.5 232.1L471.5 229.4L471.3 229.4Q470.9 230.3 470.1 231.0Q469.3 231.7 468.2 232.1Q467.0 232.5 465.6 232.5ZM467.1 228.7L467.1 228.7Q468.3 228.7 469.3 228.2Q470.2 227.7 470.7 226.9Q471.2 226.1 471.2 225.1L471.2 225.1L471.2 223.0Q471.0 223.1 470.5 223.3Q470.1 223.4 469.6 223.5Q469.0 223.6 468.5 223.7Q467.9 223.8 467.5 223.9L467.5 223.9Q466.5 224.0 465.8 224.3Q465.1 224.6 464.7 225.1Q464.3 225.7 464.3 226.4L464.3 226.4Q464.3 227.5 465.1 228.1Q465.9 228.7 467.1 228.7ZM482.6 239.4L482.6 239.4Q481.6 239.4 480.7 239.3Q479.8 239.1 479.2 238.9L479.2 238.9L480.4 234.8Q481.4 235.1 482.2 235.1Q482.9 235.2 483.5 234.8Q484.1 234.4 484.4 233.5L484.4 233.5L484.7 232.6L477.7 212.4L483.4 212.4L487.5 226.9L487.7 226.9L491.8 212.4L497.6 212.4L489.9 234.2Q489.4 235.8 488.4 237.0Q487.5 238.2 486.1 238.8Q484.6 239.4 482.6 239.4ZM501.4 232.4L501.4 232.4Q500.1 232.4 499.2 231.5Q498.3 230.6 498.3 229.3L498.3 229.3Q498.3 228.1 499.2 227.2Q500.1 226.3 501.4 226.3L501.4 226.3Q502.6 226.3 503.6 227.2Q504.5 228.1 504.5 229.3L504.5 229.3Q504.5 230.2 504.1 230.9Q503.6 231.6 502.9 232.0Q502.2 232.4 501.4 232.4Z "/><mask id="satori_om-id-0-0-1"><rect x="509" y="175" width="268" height="50" fill="#fff"/></mask><mask id="satori_ms-id-0-0-1-0-1" maskUnits="userSpaceOnUse"><rect x="0" y="0" width="800" height="400" fill="#fff"/><path x="509" y="175" width="128" height="50" fill="#000"  stroke-width="-2" d="M515,175 h116 a6,6 0 0 1 6,6 v38 a6,6 0 0 1 -6,6 h-116 a6,6 0 0 1 -6,-6 v-38 a6,6 0 0 1 6,-6"/></mask><mask id="satori_ms-id-0-0-1-0-1-neg" maskUnits="userSpaceOnUse"><path x="509" y="176" width="128" height="50" fill="#fff" stroke="#000" stroke-width="2" d="M515,176 h116 a6,6 0 0 1 6,6 v38 a6,6 0 0 1 -6,6 h-116 a6,6 0 0 1 -6,-6 v-38 a6,6 0 0 1 6,-6"/></mask><defs><filter id="satori_s-id-0-0-1-0-1" x="0%" y="0%" width="100%" height="100%"><feGaussianBlur stdDeviation="1" result="b"/><feFlood flood-color="rgba(0, 0, 0, 0.1)" in="SourceGraphic" result="f"/><feComposite in="f" in2="b" operator="in"/></filter></defs><g mask="url(#satori_ms-id-0-0-1-0-1)" filter="url(#satori_s-id-0-0-1-0-1)" opacity="1"><g mask="url(#satori_ms-id-0-0-1-0-1-neg)"><path x="509" y="176" width="128" height="50" fill="#fff" stroke="#fff" stroke-width="-2" d="M515,176 h116 a6,6 0 0 1 6,6 v38 a6,6 0 0 1 -6,6 h-116 a6,6 0 0 1 -6,-6 v-38 a6,6 0 0 1 6,-6"/></g></g><mask id="satori_ms-id-0-0-1-0-0" maskUnits="userSpaceOnUse"><rect x="0" y="0" width="800" height="400" fill="#fff"/><path x="509" y="175" width="128" height="50" fill="#000"  stroke-width="0" d="M515,175 h116 a6,6 0 0 1 6,6 v38 a6,6 0 0 1 -6,6 h-116 a6,6 0 0 1 -6,-6 v-38 a6,6 0 0 1 6,-6"/></mask><defs><filter id="satori_s-id-0-0-1-0-0" x="-1.7578125%" y="-4.5%" width="103.515625%" height="109.00000000000001%"><feGaussianBlur stdDeviation="1.5" result="b"/><feFlood flood-color="rgba(0, 0, 0, 0.1)" in="SourceGraphic" result="f"/><feComposite in="f" in2="b" operator="in"/></filter></defs><g mask="url(#satori_ms-id-0-0-1-0-0)" filter="url(#satori_s-id-0-0-1-0-0)" opacity="1"><path x="509" y="176" width="128" height="50" fill="#fff" stroke="#fff" stroke-width="0" d="M515,176 h116 a6,6 0 0 1 6,6 v38 a6,6 0 0 1 -6,6 h-116 a6,6 0 0 1 -6,-6 v-38 a6,6 0 0 1 6,-6"/></g><mask id="satori_om-id-0-0-1-0"><rect x="509" y="175" width="128" height="50" fill="#fff"/></mask><defs><clipPath id="satori_bc-id-0-0-1-0-0"><path x="509" y="175" width="128" height="50" d="M515,175 h116 a6,6 0 0 1 6,6 v38 a6,6 0 0 1 -6,6 h-116 a6,6 0 0 1 -6,-6 v-38 a6,6 0 0 1 6,-6"/></clipPath></defs><mask id="satori_om-id-0-0-1-0-0"><rect x="510" y="176" width="126" height="48" fill="#fff"/><path width="128" height="50" fill="none" stroke="#000" stroke-width="2" d="M510.757,176.757 A6,6 0 0 1 515,175 h116 a6,6 0 0 1 6,6 v38 a6,6 0 0 1 -6,6 h-116 a6,6 0 0 1 -6,-6 v-38 A6,6 0 0 1 510.757,176.757"/></mask><path x="509" y="175" width="128" height="50" fill="#4f46e5" d="M515,175 h116 a6,6 0 0 1 6,6 v38 a6,6 0 0 1 -6,6 h-116 a6,6 0 0 1 -6,-6 v-38 a6,6 0 0 1 6,-6"/><path width="128" height="50" clip-path="url(#satori_bc-id-0-0-1-0-0)" fill="none" stroke="transparent" stroke-width="2" d="M510.757,176.757 A6,6 0 0 1 515,175 h116 a6,6 0 0 1 6,6 v38 a6,6 0 0 1 -6,6 h-116 a6,6 0 0 1 -6,-6 v-38 A6,6 0 0 1 510.757,176.757"/><path fill="#fff" d="M540.8 197.4L539.4 197.4Q539.2 196.8 538.9 196.4Q538.6 195.9 538.2 195.6Q537.7 195.3 537.2 195.1Q536.7 194.9 536.0 194.9L536.0 194.9Q535.0 194.9 534.2 195.5Q533.3 196.0 532.8 197.0Q532.3 198.1 532.3 199.6L532.3 199.6Q532.3 201.1 532.8 202.1Q533.3 203.2 534.2 203.7Q535.1 204.2 536.1 204.2L536.1 204.2Q537.1 204.2 537.9 203.8Q538.7 203.4 539.1 202.6Q539.5 201.8 539.5 200.7L539.5 200.7L540.0 200.8L536.5 200.8L536.5 199.6L540.9 199.6L540.9 200.8Q540.9 202.3 540.3 203.3Q539.7 204.4 538.6 205.0Q537.5 205.6 536.1 205.6L536.1 205.6Q534.6 205.6 533.4 204.8Q532.3 204.1 531.6 202.8Q531.0 201.4 531.0 199.6L531.0 199.6Q531.0 198.2 531.3 197.1Q531.7 196.0 532.4 195.2Q533.1 194.4 534.0 194.0Q534.9 193.6 536.0 193.6L536.0 193.6Q537.0 193.6 537.8 193.9Q538.6 194.2 539.2 194.7Q539.8 195.2 540.2 195.9Q540.7 196.5 540.8 197.4L540.8 197.4ZM546.8 205.6L546.8 205.6Q545.5 205.6 544.6 205.0Q543.7 204.5 543.2 203.5Q542.7 202.4 542.7 201.1L542.7 201.1Q542.7 199.8 543.2 198.7Q543.7 197.7 544.6 197.1Q545.5 196.6 546.6 196.6L546.6 196.6Q547.3 196.6 548.0 196.8Q548.6 197.0 549.2 197.5Q549.7 198.0 550.1 198.9Q550.4 199.7 550.4 200.9L550.4 200.9L550.4 201.5L543.7 201.5L543.7 200.3L549.0 200.3Q549.0 199.6 548.7 199.0Q548.4 198.4 547.9 198.1Q547.4 197.8 546.6 197.8L546.6 197.8Q545.8 197.8 545.3 198.2Q544.7 198.5 544.4 199.2Q544.0 199.8 544.0 200.5L544.0 200.5L544.0 201.3Q544.0 202.3 544.4 203.0Q544.7 203.7 545.3 204.0Q546.0 204.4 546.8 204.4L546.8 204.4Q547.3 204.4 547.7 204.2Q548.2 204.1 548.5 203.8Q548.8 203.5 549.0 203.0L549.0 203.0L550.3 203.4Q550.0 204.0 549.6 204.5Q549.1 205.0 548.4 205.3Q547.7 205.6 546.8 205.6ZM551.7 196.7L556.2 196.7L556.2 197.8L551.7 197.8L551.7 196.7ZM553.0 203.3L553.0 194.6L554.4 194.6L554.4 202.9Q554.4 203.5 554.5 203.7Q554.7 204.0 555.0 204.1Q555.2 204.2 555.5 204.2L555.5 204.2Q555.7 204.2 555.9 204.2Q556.0 204.2 556.1 204.1L556.1 204.1L556.4 205.4Q556.3 205.4 556.0 205.5Q555.8 205.5 555.4 205.5L555.4 205.5Q554.8 205.5 554.3 205.3Q553.7 205.0 553.4 204.5Q553.0 204.0 553.0 203.3L553.0 203.3Z M568.9 198.6L568.9 198.6L567.7 199.0Q567.6 198.7 567.4 198.4Q567.2 198.1 566.8 197.9Q566.4 197.7 565.8 197.7L565.8 197.7Q565.0 197.7 564.5 198.1Q564.0 198.4 564.0 199.0L564.0 199.0Q564.0 199.5 564.3 199.8Q564.7 200.1 565.5 200.3L565.5 200.3L566.8 200.6Q567.9 200.9 568.5 201.5Q569.1 202.0 569.1 203.0L569.1 203.0Q569.1 203.7 568.7 204.3Q568.2 204.9 567.5 205.2Q566.7 205.6 565.7 205.6L565.7 205.6Q564.3 205.6 563.5 205.0Q562.6 204.4 562.4 203.3L562.4 203.3L563.6 203.0Q563.8 203.7 564.3 204.0Q564.8 204.4 565.7 204.4L565.7 204.4Q566.6 204.4 567.2 204.0Q567.7 203.6 567.7 203.0L567.7 203.0Q567.7 202.6 567.4 202.3Q567.1 202.0 566.4 201.8L566.4 201.8L565.0 201.5Q563.8 201.2 563.2 200.6Q562.6 200.0 562.6 199.1L562.6 199.1Q562.6 198.3 563.1 197.8Q563.5 197.2 564.2 196.9Q564.9 196.6 565.8 196.6L565.8 196.6Q567.1 196.6 567.9 197.1Q568.6 197.7 568.9 198.6ZM570.4 196.7L574.9 196.7L574.9 197.8L570.4 197.8L570.4 196.7ZM571.7 203.3L571.7 194.6L573.0 194.6L573.0 202.9Q573.0 203.5 573.2 203.7Q573.4 204.0 573.6 204.1Q573.9 204.2 574.2 204.2L574.2 204.2Q574.4 204.2 574.6 204.2Q574.7 204.2 574.8 204.1L574.8 204.1L575.1 205.4Q574.9 205.4 574.7 205.5Q574.4 205.5 574.1 205.5L574.1 205.5Q573.5 205.5 573.0 205.3Q572.4 205.0 572.1 204.5Q571.7 204.0 571.7 203.3L571.7 203.3ZM579.5 205.6L579.5 205.6Q578.7 205.6 578.0 205.3Q577.3 205.0 576.9 204.4Q576.5 203.8 576.5 202.9L576.5 202.9Q576.5 202.2 576.8 201.7Q577.1 201.2 577.6 201.0Q578.1 200.7 578.7 200.6Q579.3 200.4 579.9 200.4L579.9 200.4Q580.7 200.2 581.2 200.2Q581.7 200.1 581.9 200.0Q582.2 199.9 582.2 199.6L582.2 199.6L582.2 199.5Q582.2 198.7 581.7 198.2Q581.2 197.7 580.3 197.7L580.3 197.7Q579.4 197.7 578.8 198.2Q578.3 198.6 578.0 199.1L578.0 199.1L576.8 198.6Q577.1 197.8 577.7 197.4Q578.3 196.9 578.9 196.7Q579.6 196.6 580.3 196.6L580.3 196.6Q580.7 196.6 581.2 196.7Q581.8 196.8 582.3 197.1Q582.8 197.4 583.2 198.0Q583.5 198.6 583.5 199.6L583.5 199.6L583.5 205.4L582.2 205.4L582.2 204.2L582.1 204.2Q582.0 204.5 581.6 204.8Q581.3 205.1 580.8 205.4Q580.3 205.6 579.5 205.6ZM579.7 204.4L579.7 204.4Q580.5 204.4 581.0 204.1Q581.6 203.8 581.9 203.3Q582.2 202.8 582.2 202.2L582.2 202.2L582.2 201.0Q582.1 201.1 581.8 201.2Q581.5 201.3 581.1 201.3Q580.8 201.4 580.4 201.4Q580.1 201.5 579.8 201.5L579.8 201.5Q579.3 201.6 578.9 201.7Q578.4 201.9 578.1 202.2Q577.9 202.5 577.9 203.0L577.9 203.0Q577.9 203.7 578.4 204.0Q578.9 204.4 579.7 204.4ZM587.3 205.4L586.0 205.4L586.0 196.7L587.3 196.7L587.3 198.0L587.3 198.0Q587.6 197.3 588.2 196.9Q588.8 196.5 589.6 196.5L589.6 196.5Q589.8 196.5 590.0 196.5Q590.2 196.5 590.3 196.6L590.3 196.6L590.3 197.9Q590.3 197.9 590.0 197.9Q589.8 197.8 589.5 197.8L589.5 197.8Q588.9 197.8 588.4 198.1Q587.9 198.4 587.6 198.8Q587.3 199.3 587.3 199.9L587.3 199.9L587.3 205.4ZM591.7 196.7L596.3 196.7L596.3 197.8L591.7 197.8L591.7 196.7ZM593.0 203.3L593.0 194.6L594.4 194.6L594.4 202.9Q594.4 203.5 594.6 203.7Q594.7 204.0 595.0 204.1Q595.3 204.2 595.5 204.2L595.5 204.2Q595.8 204.2 595.9 204.2Q596.1 204.2 596.1 204.1L596.1 204.1L596.4 205.4Q596.3 205.4 596.0 205.5Q595.8 205.5 595.4 205.5L595.4 205.5Q594.8 205.5 594.3 205.3Q593.8 205.0 593.4 204.5Q593.0 204.0 593.0 203.3L593.0 203.3ZM601.8 205.6L601.8 205.6Q600.6 205.6 599.7 205.0Q598.8 204.5 598.3 203.5Q597.8 202.4 597.8 201.1L597.8 201.1Q597.8 199.8 598.3 198.7Q598.8 197.7 599.6 197.1Q600.5 196.6 601.7 196.6L601.7 196.6Q602.4 196.6 603.1 196.8Q603.7 197.0 604.3 197.5Q604.8 198.0 605.1 198.9Q605.5 199.7 605.5 200.9L605.5 200.9L605.5 201.5L598.7 201.5L598.7 200.3L604.1 200.3Q604.1 199.6 603.8 199.0Q603.5 198.4 603.0 198.1Q602.4 197.8 601.7 197.8L601.7 197.8Q600.9 197.8 600.3 198.2Q599.7 198.5 599.4 199.2Q599.1 199.8 599.1 200.5L599.1 200.5L599.1 201.3Q599.1 202.3 599.5 203.0Q599.8 203.7 600.4 204.0Q601.0 204.4 601.8 204.4L601.8 204.4Q602.4 204.4 602.8 204.2Q603.2 204.1 603.5 203.8Q603.9 203.5 604.0 203.0L604.0 203.0L605.3 203.4Q605.1 204.0 604.6 204.5Q604.1 205.0 603.4 205.3Q602.7 205.6 601.8 205.6ZM610.8 205.6L610.8 205.6Q609.7 205.6 608.9 205.0Q608.0 204.5 607.6 203.5Q607.1 202.4 607.1 201.1L607.1 201.1Q607.1 199.7 607.6 198.7Q608.0 197.7 608.9 197.1Q609.7 196.6 610.8 196.6L610.8 196.6Q611.7 196.6 612.2 196.8Q612.7 197.1 612.9 197.5Q613.2 197.8 613.3 198.1L613.3 198.1L613.5 198.1L613.5 193.8L614.8 193.8L614.8 205.4L613.5 205.4L613.5 204.1L613.3 204.1Q613.2 204.3 612.9 204.7Q612.6 205.0 612.1 205.3Q611.6 205.6 610.8 205.6ZM611.0 204.4L611.0 204.4Q611.8 204.4 612.3 204.0Q612.9 203.5 613.2 202.8Q613.5 202.0 613.5 201.0L613.5 201.0Q613.5 200.1 613.2 199.3Q612.9 198.6 612.4 198.2Q611.8 197.8 611.0 197.8L611.0 197.8Q610.1 197.8 609.6 198.2Q609.0 198.6 608.7 199.4Q608.4 200.1 608.4 201.0L608.4 201.0Q608.4 202.0 608.7 202.7Q609.0 203.5 609.6 203.9Q610.1 204.4 611.0 204.4Z "/><mask id="satori_ms-id-0-0-1-1-1" maskUnits="userSpaceOnUse"><rect x="0" y="0" width="800" height="400" fill="#fff"/><path x="649" y="175" width="128" height="50" fill="#000"  stroke-width="-2" d="M655,175 h116 a6,6 0 0 1 6,6 v38 a6,6 0 0 1 -6,6 h-116 a6,6 0 0 1 -6,-6 v-38 a6,6 0 0 1 6,-6"/></mask><mask id="satori_ms-id-0-0-1-1-1-neg" maskUnits="userSpaceOnUse"><path x="649" y="176" width="128" height="50" fill="#fff" stroke="#000" stroke-width="2" d="M655,176 h116 a6,6 0 0 1 6,6 v38 a6,6 0 0 1 -6,6 h-116 a6,6 0 0 1 -6,-6 v-38 a6,6 0 0 1 6,-6"/></mask><defs><filter id="satori_s-id-0-0-1-1-1" x="0%" y="0%" width="100%" height="100%"><feGaussianBlur stdDeviation="1" result="b"/><feFlood flood-color="rgba(0, 0, 0, 0.1)" in="SourceGraphic" result="f"/><feComposite in="f" in2="b" operator="in"/></filter></defs><g mask="url(#satori_ms-id-0-0-1-1-1)" filter="url(#satori_s-id-0-0-1-1-1)" opacity="1"><g mask="url(#satori_ms-id-0-0-1-1-1-neg)"><path x="649" y="176" width="128" height="50" fill="#fff" stroke="#fff" stroke-width="-2" d="M655,176 h116 a6,6 0 0 1 6,6 v38 a6,6 0 0 1 -6,6 h-116 a6,6 0 0 1 -6,-6 v-38 a6,6 0 0 1 6,-6"/></g></g><mask id="satori_ms-id-0-0-1-1-0" maskUnits="userSpaceOnUse"><rect x="0" y="0" width="800" height="400" fill="#fff"/><path x="649" y="175" width="128" height="50" fill="#000"  stroke-width="0" d="M655,175 h116 a6,6 0 0 1 6,6 v38 a6,6 0 0 1 -6,6 h-116 a6,6 0 0 1 -6,-6 v-38 a6,6 0 0 1 6,-6"/></mask><defs><filter id="satori_s-id-0-0-1-1-0" x="-1.7578125%" y="-4.5%" width="103.515625%" height="109.00000000000001%"><feGaussianBlur stdDeviation="1.5" result="b"/><feFlood flood-color="rgba(0, 0, 0, 0.1)" in="SourceGraphic" result="f"/><feComposite in="f" in2="b" operator="in"/></filter></defs><g mask="url(#satori_ms-id-0-0-1-1-0)" filter="url(#satori_s-id-0-0-1-1-0)" opacity="1"><path x="649" y="176" width="128" height="50" fill="#fff" stroke="#fff" stroke-width="0" d="M655,176 h116 a6,6 0 0 1 6,6 v38 a6,6 0 0 1 -6,6 h-116 a6,6 0 0 1 -6,-6 v-38 a6,6 0 0 1 6,-6"/></g><mask id="satori_om-id-0-0-1-1"><rect x="649" y="175" width="128" height="50" fill="#fff"/></mask><defs><clipPath id="satori_bc-id-0-0-1-1-0"><path x="649" y="175" width="128" height="50" d="M655,175 h116 a6,6 0 0 1 6,6 v38 a6,6 0 0 1 -6,6 h-116 a6,6 0 0 1 -6,-6 v-38 a6,6 0 0 1 6,-6"/></clipPath></defs><mask id="satori_om-id-0-0-1-1-0"><rect x="650" y="176" width="126" height="48" fill="#fff"/><path width="128" height="50" fill="none" stroke="#000" stroke-width="2" d="M650.757,176.757 A6,6 0 0 1 655,175 h116 a6,6 0 0 1 6,6 v38 a6,6 0 0 1 -6,6 h-116 a6,6 0 0 1 -6,-6 v-38 A6,6 0 0 1 650.757,176.757"/></mask><path x="649" y="175" width="128" height="50" fill="#fff" d="M655,175 h116 a6,6 0 0 1 6,6 v38 a6,6 0 0 1 -6,6 h-116 a6,6 0 0 1 -6,-6 v-38 a6,6 0 0 1 6,-6"/><path width="128" height="50" clip-path="url(#satori_bc-id-0-0-1-1-0)" fill="none" stroke="transparent" stroke-width="2" d="M650.757,176.757 A6,6 0 0 1 655,175 h116 a6,6 0 0 1 6,6 v38 a6,6 0 0 1 -6,6 h-116 a6,6 0 0 1 -6,-6 v-38 A6,6 0 0 1 650.757,176.757"/><path fill="#4f46e5" d="M678.2 205.4L671.4 205.4L671.4 193.8L672.8 193.8L672.8 204.1L678.2 204.1L678.2 205.4ZM683.9 205.6L683.9 205.6Q682.6 205.6 681.7 205.0Q680.8 204.5 680.3 203.5Q679.8 202.4 679.8 201.1L679.8 201.1Q679.8 199.8 680.3 198.7Q680.8 197.7 681.7 197.1Q682.6 196.6 683.8 196.6L683.8 196.6Q684.4 196.6 685.1 196.8Q685.8 197.0 686.3 197.5Q686.9 198.0 687.2 198.9Q687.5 199.7 687.5 200.9L687.5 200.9L687.5 201.5L680.8 201.5L680.8 200.3L686.1 200.3Q686.1 199.6 685.8 199.0Q685.6 198.4 685.0 198.1Q684.5 197.8 683.8 197.8L683.8 197.8Q682.9 197.8 682.4 198.2Q681.8 198.5 681.5 199.2Q681.2 199.8 681.2 200.5L681.2 200.5L681.2 201.3Q681.2 202.3 681.5 203.0Q681.8 203.7 682.5 204.0Q683.1 204.4 683.9 204.4L683.9 204.4Q684.4 204.4 684.8 204.2Q685.3 204.1 685.6 203.8Q685.9 203.5 686.1 203.0L686.1 203.0L687.4 203.4Q687.2 204.0 686.7 204.5Q686.2 205.0 685.5 205.3Q684.8 205.6 683.9 205.6ZM692.1 205.6L692.1 205.6Q691.3 205.6 690.6 205.3Q689.9 205.0 689.5 204.4Q689.1 203.8 689.1 202.9L689.1 202.9Q689.1 202.2 689.4 201.7Q689.7 201.2 690.2 201.0Q690.7 200.7 691.3 200.6Q691.9 200.4 692.5 200.4L692.5 200.4Q693.3 200.2 693.8 200.2Q694.3 200.1 694.5 200.0Q694.8 199.9 694.8 199.6L694.8 199.6L694.8 199.5Q694.8 198.7 694.3 198.2Q693.9 197.7 692.9 197.7L692.9 197.7Q692.0 197.7 691.4 198.2Q690.9 198.6 690.7 199.1L690.7 199.1L689.4 198.6Q689.7 197.8 690.3 197.4Q690.9 196.9 691.5 196.7Q692.2 196.6 692.9 196.6L692.9 196.6Q693.3 196.6 693.9 196.7Q694.4 196.8 694.9 197.1Q695.4 197.4 695.8 198.0Q696.1 198.6 696.1 199.6L696.1 199.6L696.1 205.4L694.8 205.4L694.8 204.2L694.7 204.2Q694.6 204.5 694.3 204.8Q693.9 205.1 693.4 205.4Q692.9 205.6 692.1 205.6ZM692.3 204.4L692.3 204.4Q693.1 204.4 693.7 204.1Q694.2 203.8 694.5 203.3Q694.8 202.8 694.8 202.2L694.8 202.2L694.8 201.0Q694.7 201.1 694.4 201.2Q694.1 201.3 693.7 201.3Q693.4 201.4 693.0 201.4Q692.7 201.5 692.5 201.5L692.5 201.5Q691.9 201.6 691.5 201.7Q691.0 201.9 690.8 202.2Q690.5 202.5 690.5 203.0L690.5 203.0Q690.5 203.7 691.0 204.0Q691.5 204.4 692.3 204.4ZM699.9 205.4L698.6 205.4L698.6 196.7L699.9 196.7L699.9 198.0L700.0 198.0Q700.2 197.3 700.8 196.9Q701.4 196.5 702.2 196.5L702.2 196.5Q702.4 196.5 702.6 196.5Q702.8 196.5 702.9 196.6L702.9 196.6L702.9 197.9Q702.9 197.9 702.6 197.9Q702.4 197.8 702.1 197.8L702.1 197.8Q701.5 197.8 701.0 198.1Q700.5 198.4 700.2 198.8Q699.9 199.3 699.9 199.9L699.9 199.9L699.9 205.4ZM705.9 200.1L705.9 200.1L705.9 205.4L704.5 205.4L704.5 196.7L705.8 196.7L705.8 198.0L705.9 198.0Q706.2 197.4 706.9 197.0Q707.5 196.6 708.5 196.6L708.5 196.6Q709.4 196.6 710.0 196.9Q710.7 197.3 711.1 198.0Q711.4 198.7 711.4 199.9L711.4 199.9L711.4 205.4L710.1 205.4L710.1 199.9Q710.1 198.9 709.6 198.3Q709.0 197.8 708.1 197.8L708.1 197.8Q707.4 197.8 706.9 198.0Q706.4 198.3 706.2 198.9Q705.9 199.4 705.9 200.1Z M719.7 205.4L718.4 205.4L718.4 196.7L719.7 196.7L719.7 198.0L719.8 198.0Q720.1 197.3 720.7 196.9Q721.3 196.6 722.1 196.6L722.1 196.6Q723 196.6 723.6 196.9Q724.2 197.3 724.5 198.0L724.5 198.0L724.6 198.0Q724.9 197.4 725.6 197.0Q726.2 196.6 727.2 196.6L727.2 196.6Q728.4 196.6 729.1 197.3Q729.8 198.0 729.8 199.6L729.8 199.6L729.8 205.4L728.5 205.4L728.5 199.6Q728.5 198.6 728.0 198.2Q727.4 197.8 726.7 197.8L726.7 197.8Q725.8 197.8 725.3 198.3Q724.8 198.9 724.8 199.7L724.8 199.7L724.8 205.4L723.4 205.4L723.4 199.4Q723.4 198.7 722.9 198.2Q722.5 197.8 721.7 197.8L721.7 197.8Q721.2 197.8 720.7 198.0Q720.3 198.3 720.0 198.8Q719.7 199.3 719.7 199.9L719.7 199.9L719.7 205.4ZM735.8 205.6L735.8 205.6Q734.7 205.6 733.8 205.0Q732.9 204.5 732.4 203.4Q731.9 202.4 731.9 201.1L731.9 201.1Q731.9 199.7 732.4 198.7Q732.9 197.7 733.8 197.1Q734.7 196.6 735.8 196.6L735.8 196.6Q737.0 196.6 737.9 197.1Q738.8 197.7 739.3 198.7Q739.8 199.7 739.8 201.1L739.8 201.1Q739.8 202.4 739.3 203.4Q738.8 204.5 737.9 205.0Q737.0 205.6 735.8 205.6ZM735.8 204.4L735.8 204.4Q736.7 204.4 737.3 203.9Q737.9 203.5 738.2 202.7Q738.5 202.0 738.5 201.1L738.5 201.1Q738.5 200.2 738.2 199.4Q737.9 198.7 737.3 198.2Q736.7 197.8 735.8 197.8L735.8 197.8Q734.9 197.8 734.4 198.2Q733.8 198.7 733.5 199.4Q733.2 200.2 733.2 201.1L733.2 201.1Q733.2 202.0 733.5 202.7Q733.8 203.5 734.4 203.9Q734.9 204.4 735.8 204.4ZM743.2 205.4L741.8 205.4L741.8 196.7L743.1 196.7L743.1 198.0L743.2 198.0Q743.5 197.3 744.1 196.9Q744.7 196.5 745.5 196.5L745.5 196.5Q745.6 196.5 745.9 196.5Q746.1 196.5 746.2 196.6L746.2 196.6L746.2 197.9Q746.1 197.9 745.9 197.9Q745.7 197.8 745.4 197.8L745.4 197.8Q744.7 197.8 744.3 198.1Q743.8 198.4 743.5 198.8Q743.2 199.3 743.2 199.9L743.2 199.9L743.2 205.4ZM751.2 205.6L751.2 205.6Q749.9 205.6 749.0 205.0Q748.1 204.5 747.6 203.5Q747.1 202.4 747.1 201.1L747.1 201.1Q747.1 199.8 747.6 198.7Q748.1 197.7 749.0 197.1Q749.9 196.6 751.0 196.6L751.0 196.6Q751.7 196.6 752.4 196.8Q753.1 197.0 753.6 197.5Q754.1 198.0 754.5 198.9Q754.8 199.7 754.8 200.9L754.8 200.9L754.8 201.5L748.1 201.5L748.1 200.3L753.4 200.3Q753.4 199.6 753.1 199.0Q752.8 198.4 752.3 198.1Q751.8 197.8 751.0 197.8L751.0 197.8Q750.2 197.8 749.7 198.2Q749.1 198.5 748.8 199.2Q748.5 199.8 748.5 200.5L748.5 200.5L748.5 201.3Q748.5 202.3 748.8 203.0Q749.1 203.7 749.8 204.0Q750.4 204.4 751.2 204.4L751.2 204.4Q751.7 204.4 752.1 204.2Q752.6 204.1 752.9 203.8Q753.2 203.5 753.4 203.0L753.4 203.0L754.7 203.4Q754.5 204.0 754.0 204.5Q753.5 205.0 752.8 205.3Q752.1 205.6 751.2 205.6Z "/></svg>