<?xml version="1.0" encoding="UTF-8"?>
<svg xmlns="http://www.w3.org/2000/svg" id="a" width="865.76" height="682.89" viewBox="0 0 865.76 682.89">
  <g>
    <rect x="99.97" y="197.03" width="134.57" height="23.06" fill="#f0f0f0"></rect>
    <path d="M241.2,439.14v-34c0-1.8-1.44-3.26-3.24-3.28h0c-1.81,0-3.28,1.47-3.28,3.28h0v34c0,1.81,1.47,3.28,3.28,3.29h0c1.8-.03,3.23-1.49,3.24-3.29Z" fill="#fff"></path>
    <path d="M279.89,590.46c-1.4,.02-2.79-.08-4.17-.28-58.66-3.77-56-114.84-55.9-119.56l3.91,.13c0,1.11-2.68,112.13,52.33,115.54h.27c.83,.15,20.67,3.73,32.69-18.3l.37-.68c9.87-17.2,16.52-59.09,20.34-91.23,6-50.58,7.72-128.59,7.82-129.37,2.23-24.07,13.89-35.28,36.71-35.43l20.52,.15v3.91l-20.51-.15c-20.91,.13-30.73,9.62-32.84,31.74,0,.64-1.73,78.85-7.83,129.62-5.64,47.28-12.65,78.49-20.85,92.72l-.32,.58c-9.87,18.2-25.12,20.61-32.54,20.61h0Z" fill="#002346"></path>
    <path d="M234.91,498.57c.17,2.57-1.75,4.8-4.32,5h-16.33c-2.48,0-4.53-1.92-4.69-4.39l-2.11-30.11h25.38l2.07,29.5Z" fill="#002346"></path>
    <path d="M107.95,54.83h12.18c-11.27-.17-20.55,8.82-20.72,20.1v.02c-.02,.72,0,1.45,.08,2.17l25.85,369.87c1.06,12.4,11.36,21.97,23.81,22.13h-12.19c-12.47-.17-22.76-9.79-23.79-22.21L87.3,77.12c-1.02-11.23,7.25-21.17,18.48-22.2,.72-.07,1.45-.1,2.17-.09Z" fill="#407bff"></path>
    <g>
      <path d="M107.95,54.83h12.18c-11.27-.17-20.55,8.82-20.72,20.1v.02c-.02,.72,0,1.45,.08,2.17l25.85,369.87c1.06,12.4,11.36,21.97,23.81,22.13h-12.19c-12.26,0-24.61-9.95-25.47-22.21L85.58,77.12c-.86-12.34,10.11-22.29,22.37-22.29Z" fill="#002346"></path>
      <path d="M149.15,469.62h-12.19c-12.99,0-25.12-10.6-25.97-22.67L85.08,77.15c-.39-5.6,1.6-11.04,5.59-15.33,4.44-4.76,10.74-7.5,17.27-7.5h12.18v1h-.64c-5.08,.08-9.87,2.06-13.54,5.62-3.82,3.7-5.96,8.67-6.05,13.99-.02,.73,0,1.44,.08,2.14l25.85,369.88c1.05,12.19,11.07,21.51,23.32,21.66v1h0ZM107.95,55.33c-6.26,0-12.29,2.62-16.54,7.18-3.81,4.08-5.7,9.26-5.33,14.58l25.91,369.79c.81,11.58,12.48,21.75,24.97,21.75h5.48c-9.55-2.8-16.7-11.19-17.59-21.59L98.99,77.15c-.07-.72-.1-1.47-.08-2.22,.09-5.6,2.34-10.82,6.35-14.71,2.34-2.27,5.11-3.93,8.13-4.9h-5.44Z" fill="#0d2445"></path>
    </g>
    <g>
      <path d="M140.55,469.12h149.2c11.28,.16,20.56-8.85,20.72-20.13,0-.69-.02-1.39-.08-2.08l-25.85-369.79c-1.02-12.42-11.32-22.04-23.78-22.21H111.61c-11.28-.19-20.58,8.8-20.77,20.08v.02c0,.7,0,1.41,.07,2.11l25.93,369.87c1.06,12.36,11.3,21.92,23.71,22.13h0Z" fill="#7490f6"></path>
      <path d="M290.05,469.62H140.54c-12.71-.21-23.11-9.92-24.2-22.59L90.41,77.15c-.07-.71-.07-1.44-.07-2.15,.09-5.61,2.36-10.83,6.38-14.72s9.33-5.97,14.9-5.88h149.14c12.79,.18,23.23,9.92,24.28,22.67l25.85,369.8c.06,.69,.09,1.41,.08,2.12-.17,11.44-9.52,20.63-20.92,20.63Zm-149.49-1h149.19c10.99,.13,20.06-8.65,20.22-19.64,0-.68-.02-1.36-.08-2.03l-25.85-369.8c-1.01-12.22-11.02-21.57-23.29-21.74H111.61c-5.35-.09-10.37,1.9-14.2,5.6-3.83,3.7-5.98,8.67-6.07,13.99,0,.69,0,1.39,.07,2.07l25.93,369.88c1.04,12.14,11.02,21.46,23.22,21.67h0Z" fill="#002346"></path>
    </g>
    <g>
      <path d="M260.37,61.97c8.66,.14,15.81,6.82,16.52,15.45l25.87,369.86c.68,7.41-4.76,13.96-12.17,14.65-.5,.05-1,.07-1.5,.06H139.91c-8.67-.13-15.82-6.82-16.54-15.46L97.53,76.69c-.71-7.39,4.7-13.96,12.09-14.67h.02c.52-.03,1.04-.03,1.56,0,0,0,149.17-.05,149.17-.05Z" fill="#fff"></path>
      <path d="M289.34,462.49H139.91c-8.97-.14-16.29-6.98-17.04-15.92L97.03,76.72c-.36-3.69,.75-7.32,3.12-10.19s5.71-4.65,9.42-5.01c.58-.04,1.12-.04,1.66,0l149.15-.05c8.96,.14,16.27,6.98,17.01,15.91l25.87,369.87c.71,7.66-4.96,14.47-12.62,15.18-.43,.04-.87,.06-1.3,.06h0Zm-.24-1c.49,0,.97,0,1.45-.06,7.12-.66,12.38-6.99,11.72-14.11l-25.87-369.87c-.7-8.41-7.59-14.85-16.03-14.98l-149.17,.05c-.53-.03-1.03-.03-1.53,0-3.45,.33-6.55,1.98-8.75,4.65s-3.23,6.03-2.89,9.47l25.84,369.85c.7,8.41,7.6,14.86,16.05,15h149.18Z" fill="#002346"></path>
    </g>
    <g>
      <polygon points="292.16 362.74 122.61 362.74 105.79 122.39 275.36 122.39 292.16 362.74" fill="#7490f6"></polygon>
      <path d="M292.7,363.24H122.15l-.03-.46-16.86-240.89h170.57l.03,.47,16.84,240.88Zm-169.62-1h168.55l-16.73-239.35H106.33l16.75,239.35h0Z" fill="#002346"></path>
    </g>
    <path d="M156.03,327.99c-.13-1.29,.8-2.44,2.09-2.58,.14-.01,.27-.01,.41,0,.75,0,1.48,.3,2,.84l-.57,.57c-.35-.38-.85-.59-1.37-.58-.86-.06-1.61,.59-1.67,1.45v.3c.05,1.01,.9,1.79,1.91,1.77,.5,.02,.99-.2,1.3-.6l.64,.58c-.48,.56-1.2,.87-1.94,.83-1.47,.02-2.7-1.11-2.8-2.58Z" fill="#002346"></path>
    <path d="M165.84,325.49l.34,5h-.92l-.16-2.16h-2.56l.15,2.16h-.93l-.35-5h.94l.14,2.06h2.6l-.16-2.06h.91Z" fill="#002346"></path>
    <path d="M171.27,329.69v.78h-3.76l-.34-5h3.67v.78h-2.72v1.3h2.42v.76h-2.42l.09,1.4,3.06-.02Z" fill="#002346"></path>
    <path d="M171.84,327.99c-.12-1.3,.82-2.45,2.12-2.58,.13-.01,.25-.01,.38,0,.76-.01,1.48,.29,2,.84l-.56,.57c-.36-.38-.86-.59-1.38-.58-.86-.07-1.61,.57-1.68,1.43h0c0,.1,0,.21,0,.31,.06,1.01,.91,1.79,1.92,1.77,.5,.01,.97-.21,1.28-.6l.64,.58c-.47,.56-1.19,.87-1.92,.83-1.47,.01-2.69-1.12-2.8-2.58h0Z" fill="#002346"></path>
    <path d="M179.12,328.4l-.74,.82,.1,1.29h-.94l-.35-5h.93l.18,2.56,2.29-2.56h1.05l-1.94,2.18,2.42,2.79h-1.09l-1.91-2.08h0Z" fill="#002346"></path>
    <path d="M182.4,325.49h.94l.34,5h-.92l-.36-5Z" fill="#002346"></path>
    <path d="M189.14,325.49l.35,5h-.77l-3-3.4,.25,3.4h-.85l-.36-5h.77l3,3.39-.23-3.39h.84Z" fill="#002346"></path>
    <path d="M194.09,327.94h.87l.14,2c-.55,.43-1.23,.66-1.92,.64-1.5,.05-2.77-1.09-2.88-2.58-.12-1.31,.85-2.46,2.16-2.58h.37c.78-.03,1.53,.27,2.07,.83l-.55,.56c-.37-.37-.88-.57-1.41-.56-.86-.09-1.62,.54-1.71,1.39h0c0,.12,0,.23,0,.35,.07,1.01,.92,1.79,1.94,1.77,.35,0,.69-.09,1-.25l-.08-1.58h0Z" fill="#002346"></path>
    <path d="M198.97,326.27l.11,1.56h2.42v.8h-2.3v1.88h-.92l-.36-5h3.66v.78l-2.61-.02Z" fill="#002346"></path>
    <path d="M202.33,327.99c-.12-1.3,.82-2.45,2.12-2.58,.13-.01,.27-.01,.4,0,1.49-.05,2.76,1.09,2.87,2.58,.13,1.3-.82,2.45-2.12,2.58h-.39c-1.5,.05-2.77-1.09-2.88-2.58h0Zm4.46,0c-.06-1-.9-1.77-1.9-1.75-.86,0-1.56,.69-1.57,1.55h0v.2c.05,1,.88,1.78,1.88,1.77,.88-.01,1.58-.73,1.57-1.61,0-.05,0-.11,0-.16h.03Z" fill="#002346"></path>
    <path d="M212.15,330.51l-1.12-1.47h-1.33l.11,1.47h-.97l-.35-5h2c1.33,0,2.19,.67,2.27,1.78,.05,.67-.33,1.3-.95,1.56l1.26,1.66h-.92Zm-1.56-4.24h-1.08l.14,2h1.08c.81,0,1.22-.37,1.17-1s-.5-1-1.31-1h0Z" fill="#002346"></path>
    <path d="M215.84,328.32l-.18-2.83h.92l.2,2.8c-.1,.71,.39,1.36,1.09,1.46,.1,.01,.19,.02,.29,0,.81,0,1.23-.44,1.16-1.47l-.19-2.8h.91l.2,2.83c.21,1.02-.45,2.01-1.47,2.22-.18,.04-.36,.05-.53,.03-1.2,.09-2.25-.8-2.36-2-.02-.08-.03-.17-.04-.25h0Z" fill="#002346"></path>
    <path d="M225.7,327.27c.07,1.11-.69,1.78-2,1.78h-1.13l.1,1.46h-.93l-.34-5h2.05c1.31-.02,2.17,.65,2.25,1.76h0Zm-.94,0c0-.63-.5-1-1.32-1h-1.07l.14,2h1.08c.81,0,1.25-.37,1.17-1h0Z" fill="#002346"></path>
    <path d="M226.49,325.49h2.19c1.47-.13,2.78,.96,2.91,2.43v.07c.14,1.25-.75,2.37-2,2.52-.18,.02-.36,.02-.54,0h-2.21l-.35-5.02h0Zm2.44,4.22c.86,.09,1.63-.53,1.72-1.38h0c.02-.11,.02-.22,0-.33-.04-.99-.88-1.76-1.88-1.72h-1.29l.25,3.44h1.2Z" fill="#002346"></path>
    <path d="M235.84,329.33h-2.5l-.42,1.18h-.89l1.91-5h.9l2.61,5h-1l-.61-1.18Zm-.36-.72l-1.09-2.2-.8,2.2h1.89Z" fill="#002346"></path>
    <path d="M238.52,326.27h-1.68v-.78h4.26v.78h-1.67l.29,4.24h-.88l-.32-4.24h0Z" fill="#002346"></path>
    <path d="M245.84,329.69v.78h-3.8l-.34-5h3.66v.78h-2.72l.09,1.3h2.41v.76h-2.43l.1,1.4,3.03-.02h0Z" fill="#002346"></path>
    <path d="M246.45,329.98l.27-.72c.5,.34,1.09,.53,1.69,.54,.78,0,1.09-.28,1.06-.65,0-1.08-3-.38-3.13-2.24,0-.81,.53-1.56,1.91-1.56,.6-.01,1.19,.14,1.71,.45l-.25,.72c-.43-.25-.91-.38-1.41-.39-.77,0-1.07,.3-1,.67,0,1.08,3,.38,3.12,2.22,0,.8-.56,1.49-1.92,1.49-.72,.04-1.44-.14-2.05-.53h0Z" fill="#002346"></path>
    <path d="M255.84,338.14h-100.43c-5.85-.09-10.67-4.62-11.14-10.45-.47-5.33,3.47-10.02,8.8-10.49h0c.33-.02,.67-.02,1,0h100.41c5.84,.09,10.66,4.59,11.15,10.41h0c.21,2.73-.72,5.43-2.58,7.45-1.86,1.99-4.48,3.11-7.21,3.08h0Zm-101.8-19.38c-4.47-.08-8.17,3.48-8.25,7.95v.05c-.02,.29-.02,.59,0,.88,.39,5.02,4.54,8.92,9.57,9h100.48c4.49,.07,8.19-3.51,8.27-8v-.87c-.4-5.02-4.55-8.92-9.59-9h-100.48Z" fill="#7490f6"></path>
    <path d="M167.31,260.53c-.19-1.87,1.18-3.54,3.05-3.73,.19-.01,.39-.01,.58,0,1.13-.04,2.21,.4,3,1.21l-.81,.82c-.52-.55-1.24-.86-2-.86-1.26-.09-2.34,.86-2.43,2.12h0c0,.15,0,.3,0,.45,.06,1.47,1.3,2.61,2.77,2.56,.73,.03,1.43-.29,1.89-.86l.94,.83c-.7,.82-1.74,1.27-2.82,1.22-2.18,.1-4.04-1.58-4.17-3.76h0Z" fill="#002346"></path>
    <path d="M181.6,256.88l.5,7.29h-1.34l-.22-3.12h-3.77l.22,3.12h-1.36l-.5-7.29h1.34l.22,3h3.74l-.22-3h1.39Z" fill="#002346"></path>
    <path d="M189.44,263.03l.08,1.14h-5.46l-.52-7.29h5.3l.08,1.15h-4l.13,1.89h3.52v1.11h-3.51l.14,2h4.24Z" fill="#002346"></path>
    <path d="M190.22,260.53c-.19-1.87,1.18-3.54,3.06-3.73h0c.2-.02,.39-.02,.59,0,1.11-.02,2.18,.42,2.95,1.21l-.81,.82c-.52-.55-1.24-.86-2-.86-1.26-.09-2.35,.86-2.44,2.12,0,.15,0,.3,0,.45,.08,1.47,1.32,2.61,2.79,2.56,.72,.02,1.42-.29,1.87-.86l.94,.83c-.7,.82-1.74,1.27-2.81,1.22-2.17,.08-4.01-1.59-4.14-3.76h0Z" fill="#002346"></path>
    <path d="M200.84,261.12l-1.08,1.19,.12,1.86h-1.34l-.52-7.29h1.36l.25,3.74,3.35-3.74h1.57l-2.88,3.24,3.53,4h-1.56l-2.8-3h0Z" fill="#002346"></path>
    <path d="M205.63,256.88h1.39l.52,7.29h-1.35l-.56-7.29Z" fill="#002346"></path>
    <path d="M215.42,256.88l.5,7.29h-1.08l-4.36-4.92,.34,4.92h-1.33l-.51-7.29h1.11l4.36,4.95-.34-4.95h1.31Z" fill="#002346"></path>
    <path d="M222.66,260.45h1.27l.2,2.89c-.78,.64-1.77,.97-2.78,.94-2.18,.1-4.05-1.57-4.18-3.75-.18-1.88,1.2-3.55,3.08-3.73h0c.2-.02,.39-.02,.59,0,1.12-.05,2.21,.38,3,1.17l-.8,.85c-.55-.55-1.29-.85-2.06-.85-1.27-.09-2.37,.85-2.47,2.12v.45c.09,1.48,1.34,2.62,2.82,2.56,.53,0,1.05-.14,1.5-.41l-.18-2.24h0Z" fill="#002346"></path>
    <path d="M225.4,263.38c-.06-.41,.22-.79,.63-.86h.15c.49,0,.89,.37,.92,.86,.05,.43-.27,.82-.7,.87h-.08c-.49,0-.88-.39-.91-.87h0Z" fill="#002346"></path>
    <path d="M227.93,263.38c-.05-.42,.25-.81,.67-.86h.13c.49,0,.89,.37,.91,.86,.04,.44-.28,.82-.72,.87h-.08c-.48,0-.88-.39-.91-.87Z" fill="#002346"></path>
    <path d="M230.48,263.38c-.05-.42,.25-.81,.67-.86h.13c.49-.01,.89,.37,.91,.86,.04,.44-.28,.82-.72,.87h-.08c-.48,0-.88-.39-.91-.87Z" fill="#002346"></path>
    <g>
      <path d="M258.84,242.56c.43,4.9-3.19,9.23-8.09,9.66h0c-.3,.02-.61,.02-.91,0h-100.38c-5.44-.07-9.93-4.27-10.37-9.69-.43-4.9,3.2-9.22,8.1-9.65h0c.3-.02,.6-.02,.9,0h100.41c5.43,.08,9.9,4.27,10.34,9.68Z" fill="#fff"></path>
      <path d="M250.28,252.73c-.16,0-.32,0-.48-.02h-100.35c-5.74-.07-10.41-4.44-10.87-10.15-.22-2.5,.55-4.94,2.17-6.86s3.89-3.1,6.39-3.32c.34-.02,.66-.02,.98,0h100.38c5.72,.08,10.38,4.44,10.84,10.14,.22,2.5-.55,4.94-2.16,6.87-1.61,1.93-3.88,3.11-6.39,3.33-.18,0-.35,.02-.51,.02h0Zm-.45-1.02c.31,.02,.6,.02,.88,0,2.24-.2,4.26-1.25,5.7-2.98,1.44-1.72,2.13-3.9,1.93-6.14h0c-.42-5.18-4.65-9.15-9.85-9.22h-100.4c-.31-.02-.59-.02-.87,0-2.23,.19-4.26,1.25-5.71,2.97-1.44,1.72-2.13,3.9-1.94,6.14,.42,5.2,4.67,9.17,9.88,9.23h100.38Z" fill="#002346"></path>
    </g>
    <g>
      <path d="M219.68,234.69l1.16,15.55h-70.05c-4.64-.09-8.46-3.45-8.83-7.78-.37-3.93,2.74-7.4,6.94-7.74,.26-.02,.52-.03,.78-.03h70Z" fill="#d1d3d4"></path>
      <path d="M221.38,250.74h-70.59c-4.92-.09-8.93-3.64-9.33-8.24-.18-1.94,.43-3.86,1.71-5.4,1.38-1.65,3.46-2.7,5.69-2.89,.27-.02,.55-.03,.82-.03h70.47l1.23,16.55h0Zm-71.81-15.54c-.21,0-.42,0-.63,.03-1.96,.16-3.79,1.08-5,2.53-1.11,1.33-1.64,2.99-1.48,4.67,.36,4.09,3.94,7.24,8.35,7.33h69.5l-1.08-14.55h-69.66Z" fill="#002346"></path>
    </g>
    <path d="M248.28,203.69c.22-1.17,.35-2.36,.38-3.55l5.39-1.41c.02-.7-.02-1.39-.14-2.08l-5.63-1.35c-.44-2.41-1.24-4.75-2.38-6.92l3.77-4c-.37-.61-.76-1.2-1.17-1.8l-5.35,1.57c-1.56-1.93-3.4-3.61-5.46-5l1.15-5.47c-.61-.38-1.24-.71-1.88-1l-3.63,4.01c-1.13-.48-2.3-.87-3.49-1.17-1.18-.32-2.38-.53-3.6-.65l-1.79-5.49h-2.08l-1,5.53c-2.35,.26-4.65,.9-6.79,1.9l-4.25-4c-.59,.3-1.16,.64-1.72,1l2,5.46c-1.84,1.42-3.43,3.15-4.69,5.1l-5.59-1.57c-.31,.58-.61,1.19-.89,1.8l4.38,3.93c-.41,1.11-.72,2.25-.94,3.41-.21,1.17-.34,2.35-.39,3.53l-5.4,1.43c0,.7,.07,1.39,.16,2.08l5.62,1.34c.44,2.41,1.25,4.75,2.39,6.92l-3.77,4c.36,.61,.75,1.22,1.17,1.8l5.34-1.57c1.57,1.92,3.41,3.61,5.46,5l-1.15,5.48c.61,.36,1.25,.7,1.9,1l3.62-4.1c1.14,.47,2.3,.86,3.49,1.17,1.18,.3,2.37,.52,3.58,.64l1.8,5.49h2.14l1-5.53c2.35-.26,4.65-.9,6.79-1.9l4.26,4c.57-.32,1.15-.68,1.72-1.06l-2-5.44c1.84-1.43,3.42-3.16,4.69-5.12l5.58,1.57c.33-.59,.63-1.2,.89-1.82l-4.38-3.91c.38-1.06,.68-2.14,.89-3.25h0Z" fill="#7490f6"></path>
    <g>
      <path d="M248.28,203.69c.22-1.17,.35-2.36,.38-3.55l5.39-1.41c.02-.7-.02-1.39-.14-2.08l-5.63-1.35c-.44-2.41-1.24-4.75-2.38-6.92l3.77-4c-.37-.61-.76-1.2-1.17-1.8l-5.35,1.57c-1.56-1.93-3.4-3.61-5.46-5l1.15-5.47c-.61-.38-1.24-.71-1.88-1l-3.63,4.01c-1.13-.48-2.3-.87-3.49-1.17-1.18-.32-2.38-.53-3.6-.65l-1.79-5.49h-2.08l-1,5.53c-2.35,.26-4.65,.9-6.79,1.9l-4.25-4c-.59,.3-1.16,.64-1.72,1l2,5.46c-1.84,1.42-3.43,3.15-4.69,5.1l-5.59-1.57c-.31,.58-.61,1.19-.89,1.8l4.38,3.93c-.41,1.11-.72,2.25-.94,3.41-.21,1.17-.34,2.35-.39,3.53l-5.4,1.43c0,.7,.07,1.39,.16,2.08l5.62,1.34c.44,2.41,1.25,4.75,2.39,6.92l-3.77,4c.36,.61,.75,1.22,1.17,1.8l5.34-1.57c1.57,1.92,3.41,3.61,5.46,5l-1.15,5.48c.61,.36,1.25,.7,1.9,1l3.62-4.1c1.14,.47,2.3,.86,3.49,1.17,1.18,.3,2.37,.52,3.58,.64l1.8,5.49h2.14l1-5.53c2.35-.26,4.65-.9,6.79-1.9l4.26,4c.57-.32,1.15-.68,1.72-1.06l-2-5.44c1.84-1.43,3.42-3.16,4.69-5.12l5.58,1.57c.33-.59,.63-1.2,.89-1.82l-4.38-3.91c.38-1.06,.68-2.14,.89-3.25h0Z" fill="#fff"></path>
      <path d="M229.26,226.65h-2.92l-1.81-5.53c-1.12-.13-2.24-.34-3.33-.62s-2.17-.64-3.22-1.06l-3.63,4.11-.34-.16c-.64-.3-1.3-.64-1.94-1.02l-.31-.18,1.16-5.5c-1.89-1.32-3.6-2.88-5.08-4.65l-5.36,1.58-.21-.29c-.4-.55-.79-1.15-1.2-1.84l-.19-.32,3.78-4.02c-1.03-2.03-1.77-4.19-2.21-6.42l-5.64-1.34-.05-.34c-.09-.7-.15-1.42-.16-2.14v-.39l5.42-1.44c.06-1.08,.19-2.17,.38-3.23,.2-1.08,.49-2.14,.85-3.17l-4.4-3.95,.15-.33c.28-.62,.59-1.24,.9-1.83l.19-.35,5.62,1.58c1.19-1.78,2.64-3.35,4.31-4.69l-2.01-5.49,.33-.22c.57-.37,1.16-.71,1.76-1.03l.31-.16,4.26,4.01c2-.89,4.1-1.48,6.27-1.76l1.01-5.58h2.86l1.8,5.53c1.13,.12,2.26,.34,3.35,.63,1.09,.27,2.17,.63,3.23,1.06l3.64-4.02,.33,.15c.69,.31,1.34,.66,1.94,1.03l.3,.19-1.15,5.48c1.9,1.32,3.6,2.88,5.08,4.65l5.38-1.58,.21,.3c.41,.61,.81,1.2,1.18,1.82l.2,.33-3.79,4.02c1.03,2.03,1.77,4.19,2.2,6.42l5.64,1.35,.06,.33c.12,.72,.17,1.45,.15,2.18v.37l-5.4,1.41c-.05,1.09-.17,2.18-.38,3.25h0c-.19,1.02-.46,2.03-.8,3.01l4.4,3.92-.14,.33c-.27,.64-.58,1.27-.92,1.87l-.19,.34-5.61-1.58c-1.19,1.78-2.64,3.36-4.31,4.71l2.01,5.47-.33,.22c-.6,.4-1.19,.77-1.75,1.08l-.32,.18-4.28-4.02c-2,.89-4.1,1.48-6.27,1.76l-1.01,5.58h0Zm-2.2-1h1.36l.99-5.49,.37-.04c2.3-.25,4.53-.88,6.63-1.86l.31-.14,4.24,3.98c.34-.2,.69-.41,1.04-.64l-1.99-5.41,.29-.22c1.8-1.4,3.34-3.08,4.58-5l.2-.31,5.55,1.56c.19-.36,.37-.73,.54-1.1l-4.36-3.9,.12-.32c.37-1.03,.67-2.1,.87-3.17h0c.22-1.14,.34-2.31,.37-3.47v-.38l5.4-1.41c0-.43-.03-.86-.09-1.28l-5.62-1.35-.06-.32c-.43-2.37-1.21-4.65-2.33-6.78l-.17-.32,3.75-3.98c-.24-.39-.49-.77-.75-1.15l-5.32,1.56-.21-.26c-1.53-1.89-3.33-3.54-5.35-4.9l-.28-.19,1.15-5.45c-.38-.22-.78-.44-1.19-.63l-3.62,4-.33-.14c-1.11-.47-2.26-.85-3.42-1.15-1.16-.31-2.34-.52-3.53-.64l-.33-.03-1.78-5.46h-1.3l-.99,5.49-.37,.04c-2.3,.25-4.53,.88-6.63,1.86l-.31,.14-4.24-3.99c-.35,.19-.69,.39-1.03,.6l1.99,5.43-.29,.22c-1.8,1.39-3.34,3.06-4.58,4.98l-.2,.31-5.56-1.56c-.18,.35-.36,.72-.54,1.08l4.36,3.91-.12,.32c-.4,1.08-.71,2.2-.92,3.33-.2,1.14-.33,2.3-.38,3.46l-.02,.37-5.37,1.42c.02,.43,.05,.86,.1,1.29l5.6,1.33,.06,.32c.43,2.37,1.22,4.65,2.34,6.78l.17,.32-3.75,3.98c.25,.41,.5,.8,.75,1.15l5.32-1.56,.21,.26c1.54,1.89,3.34,3.54,5.35,4.9l.28,.19-1.14,5.45c.4,.23,.81,.44,1.21,.64l3.61-4.09,.33,.14c1.11,.46,2.26,.85,3.42,1.15,1.15,.29,2.33,.51,3.51,.63l.32,.03,1.79,5.45v.02Z" fill="#002346"></path>
    </g>
    <g>
      <ellipse cx="225.59" cy="197.85" rx="14.09" ry="15.11" transform="translate(-73.44 222.69) rotate(-46)" fill="#d1d3d4"></ellipse>
      <path d="M226.61,212.93c-3.95,0-7.99-1.53-11.16-4.59-6.19-5.98-6.68-15.55-1.09-21.34,2.71-2.81,6.44-4.31,10.47-4.25,4.03,.07,7.9,1.7,10.89,4.59s4.76,6.7,4.97,10.72c.21,4.04-1.17,7.81-3.88,10.61-2.73,2.83-6.43,4.24-10.21,4.24v.02Zm-2.04-29.17c-3.66,0-7.02,1.39-9.48,3.94h0c-5.21,5.39-4.73,14.33,1.07,19.92,5.8,5.6,14.75,5.76,19.95,.37,2.52-2.61,3.79-6.11,3.6-9.87-.2-3.77-1.85-7.34-4.67-10.06-2.81-2.72-6.44-4.25-10.21-4.31h-.26Z" fill="#002346"></path>
    </g>
    <path d="M197.89,170.84l-5.54,.1c-.8-1.51-1.73-2.95-2.78-4.3l2.51-4.7c-1.59-1.81-3.36-3.47-5.27-4.94l-4.56,2.86c-1.42-.95-2.91-1.78-4.46-2.48l-.3-5.56c-2.22-.83-4.52-1.44-6.87-1.8l-2.36,4.85c-.83,0-1.66-.11-2.48-.11-.83-.02-1.66,.02-2.48,.11l-3-4.85c-2.27,.36-4.49,.96-6.62,1.8l.49,5.56c-1.45,.7-2.83,1.53-4.13,2.48l-5-3c-1.7,1.47-3.24,3.13-4.58,4.94l3.13,4.7c-.87,1.36-1.61,2.8-2.19,4.3l-5.56-.11c-.69,2.19-1.13,4.44-1.33,6.73l5,2.71v2.56c.03,.83,.13,1.66,.28,2.48l-4.69,2.69c.53,2.32,1.29,4.58,2.27,6.74l5.55-.09c.8,1.51,1.73,2.95,2.78,4.3l-2.51,4.69c1.59,1.83,3.36,3.51,5.27,5l4.56-2.87c1.41,.96,2.91,1.79,4.46,2.49l.3,5.55c2.25,.92,4.6,1.59,7,2l2.36-4.85c.82,0,1.57,.11,2.49,.11,.82,.02,1.65-.02,2.47-.11l3,4.85c2.27-.36,4.49-.96,6.62-1.8l-.48-5.56c1.44-.7,2.82-1.53,4.11-2.48l5,2.86c1.71-1.47,3.25-3.13,4.6-4.94l-3.13-4.7c.87-1.36,1.6-2.8,2.19-4.3l5.55,.1c.69-2.19,1.13-4.45,1.33-6.74l-5-2.69v-2.49c-.03-.83-.12-1.66-.28-2.47l4.69-2.71c-.56-2.38-1.37-4.7-2.41-6.91h0Z" fill="#7490f6"></path>
    <g>
      <path d="M197.89,170.84l-5.54,.1c-.8-1.51-1.73-2.95-2.78-4.3l2.51-4.7c-1.59-1.81-3.36-3.47-5.27-4.94l-4.56,2.86c-1.42-.95-2.91-1.78-4.46-2.48l-.3-5.56c-2.22-.83-4.52-1.44-6.87-1.8l-2.36,4.85c-.83,0-1.66-.11-2.48-.11-.83-.02-1.66,.02-2.48,.11l-3-4.85c-2.27,.36-4.49,.96-6.62,1.8l.49,5.56c-1.45,.7-2.83,1.53-4.13,2.48l-5-3c-1.7,1.47-3.24,3.13-4.58,4.94l3.13,4.7c-.87,1.36-1.61,2.8-2.19,4.3l-5.56-.11c-.69,2.19-1.13,4.44-1.33,6.73l5,2.71v2.56c.03,.83,.13,1.66,.28,2.48l-4.69,2.69c.53,2.32,1.29,4.58,2.27,6.74l5.55-.09c.8,1.51,1.73,2.95,2.78,4.3l-2.51,4.69c1.59,1.83,3.36,3.51,5.27,5l4.56-2.87c1.41,.96,2.91,1.79,4.46,2.49l.3,5.55c2.25,.92,4.6,1.59,7,2l2.36-4.85c.82,0,1.57,.11,2.49,.11,.82,.02,1.65-.02,2.47-.11l3,4.85c2.27-.36,4.49-.96,6.62-1.8l-.48-5.56c1.44-.7,2.82-1.53,4.11-2.48l5,2.86c1.71-1.47,3.25-3.13,4.6-4.94l-3.13-4.7c.87-1.36,1.6-2.8,2.19-4.3l5.55,.1c.69-2.19,1.13-4.45,1.33-6.74l-5-2.69v-2.49c-.03-.83-.12-1.66-.28-2.47l4.69-2.71c-.56-2.38-1.37-4.7-2.41-6.91h0Z" fill="#fff"></path>
      <path d="M165.07,216.22l-.37-.06c-2.43-.42-4.82-1.1-7.1-2.03l-.29-.12-.3-5.56c-1.38-.64-2.72-1.39-3.99-2.22l-4.58,2.88-.28-.22c-1.94-1.51-3.73-3.21-5.34-5.07l-.23-.26,2.52-4.71c-.92-1.21-1.76-2.5-2.48-3.84l-5.57,.09-.14-.3c-.99-2.19-1.77-4.49-2.3-6.84l-.08-.36,4.71-2.7c-.12-.73-.2-1.46-.23-2.2v-2.28l-5.03-2.72,.03-.33c.2-2.32,.65-4.62,1.35-6.84l.11-.36,5.59,.11c.53-1.31,1.18-2.58,1.93-3.79l-3.14-4.72,.21-.28c1.36-1.84,2.93-3.53,4.65-5.02l.27-.24,5.03,3.02c1.15-.82,2.37-1.55,3.63-2.18l-.49-5.59,.35-.14c2.16-.85,4.43-1.46,6.72-1.83l.33-.05,3.01,4.87c.74-.07,1.49-.09,2.23-.08h0c.41,0,.83,.03,1.25,.06,.3,.02,.6,.04,.9,.05l2.38-4.9,.36,.06c2.37,.37,4.72,.98,6.97,1.83l.31,.11,.3,5.58c1.38,.64,2.71,1.38,3.98,2.21l4.58-2.87,.28,.21c1.93,1.49,3.73,3.17,5.34,5.01l.23,.26-2.52,4.72c.92,1.21,1.75,2.5,2.48,3.84l5.56-.1,.14,.29c1.06,2.24,1.88,4.6,2.44,7.01l.08,.36-4.71,2.72c.12,.73,.2,1.46,.22,2.2v2.21l5.03,2.7-.03,.33c-.2,2.32-.66,4.62-1.35,6.85l-.11,.36-5.58-.1c-.53,1.31-1.18,2.58-1.93,3.79l3.15,4.72-.21,.28c-1.37,1.84-2.94,3.53-4.67,5.02l-.27,.23-5.03-2.87c-1.14,.82-2.36,1.56-3.62,2.18l.48,5.59-.35,.14c-2.16,.85-4.43,1.47-6.73,1.83l-.33,.05-3.01-4.86c-.74,.07-1.48,.1-2.22,.08h0c-.47,0-.91-.03-1.33-.06-.28-.02-.55-.04-.83-.05l-2.39,4.9h.03Zm7.29-5.94l2.99,4.83c1.99-.34,3.95-.87,5.84-1.58l-.48-5.53,.31-.15c1.41-.68,2.77-1.5,4.03-2.43l.26-.19,4.97,2.85c1.49-1.31,2.85-2.77,4.05-4.35l-3.11-4.68,.18-.27c.85-1.33,1.57-2.75,2.15-4.21l.13-.32,5.52,.1c.58-1.94,.97-3.94,1.17-5.95l-4.97-2.67v-2.79c-.03-.78-.12-1.59-.27-2.37l-.07-.35,4.68-2.7c-.52-2.11-1.24-4.18-2.15-6.16l-5.52,.1-.14-.27c-.79-1.48-1.71-2.9-2.73-4.23l-.2-.26,2.5-4.68c-1.43-1.6-3.01-3.08-4.7-4.4l-4.54,2.85-.27-.18c-1.39-.93-2.86-1.75-4.39-2.44l-.28-.12-.3-5.54c-1.98-.72-4.03-1.26-6.1-1.6l-2.33,4.8h-.31c-.43,0-.85-.03-1.28-.06-.4-.03-.8-.05-1.2-.05-.81-.02-1.63,.02-2.42,.11l-.31,.03-2.99-4.83c-1.99,.34-3.95,.87-5.84,1.58l.49,5.53-.31,.15c-1.42,.69-2.78,1.5-4.05,2.43l-.27,.2-4.97-2.98c-1.48,1.31-2.83,2.77-4.02,4.34l3.12,4.68-.18,.28c-.85,1.32-1.58,2.74-2.14,4.21l-.13,.33-5.53-.11c-.58,1.94-.97,3.93-1.17,5.94l4.97,2.69v2.86c.03,.79,.12,1.6,.27,2.39l.07,.35-4.68,2.68c.49,2.05,1.17,4.06,2.02,5.99l5.53-.09,.14,.27c.78,1.48,1.7,2.9,2.73,4.23l.2,.26-2.5,4.67c1.43,1.62,3.01,3.11,4.7,4.46l4.54-2.86,.27,.18c1.38,.94,2.86,1.76,4.39,2.45l.28,.12,.3,5.54c2.01,.8,4.11,1.4,6.23,1.79l2.33-4.79h.31c.41,0,.8,.03,1.21,.05,.41,.03,.82,.06,1.28,.06,.81,.02,1.62-.02,2.41-.11l.31-.04-.03-.04Z" fill="#002346"></path>
    </g>
    <g>
      <path d="M190.57,182.75c1.01,11.54-7.52,21.72-19.06,22.75-.72,.07-1.45,.09-2.17,.08-12.81-.17-23.39-10.06-24.43-22.83-1.01-11.55,7.53-21.73,19.08-22.75,.71-.06,1.43-.09,2.15-.07,12.81,.17,23.38,10.05,24.43,22.82Z" fill="#d1d3d4"></path>
      <path d="M169.7,206.08h-.36c-13.14-.18-23.85-10.19-24.92-23.29-1.03-11.8,7.73-22.25,19.53-23.29,.73-.06,1.48-.09,2.21-.07,13.13,.18,23.84,10.19,24.92,23.28,1.03,11.79-7.72,22.24-19.51,23.29-.62,.06-1.24,.09-1.86,.09h-.01Zm-4-45.67c-.55,0-1.11,.02-1.66,.07-11.26,.99-19.61,10.95-18.63,22.21,1.02,12.58,11.32,22.2,23.94,22.37,.71,0,1.42,0,2.12-.08,11.25-1,19.59-10.96,18.61-22.21h0c-1.03-12.58-11.32-22.19-23.94-22.36h-.44Z" fill="#002346"></path>
    </g>
    <g>
      <path d="M172.22,182.75c.25,2.32-1.43,4.41-3.75,4.66h-.54c-2.62-.03-4.78-2.07-4.94-4.69-.21-2.33,1.52-4.39,3.85-4.6h.45c2.6,.02,4.75,2.04,4.94,4.63h-.01Z" fill="#002346"></path>
      <path d="M168.18,187.91h-.28c-2.85-.03-5.23-2.29-5.41-5.16-.23-2.59,1.7-4.9,4.3-5.13,.2,0,.36,0,.53,0,2.81,.02,5.19,2.26,5.4,5.08,.13,1.25-.23,2.48-1.02,3.47-.79,.98-1.92,1.6-3.18,1.74-.12,0-.24,0-.35,0h.01Zm-1.11-9.31h-.18c-2.07,.18-3.59,2-3.41,4.06,.15,2.36,2.1,4.21,4.45,4.23h.51c.97-.11,1.86-.59,2.49-1.37,.62-.78,.91-1.75,.8-2.74v-.02c-.17-2.32-2.13-4.15-4.45-4.17h-.21Z" fill="#0d2445"></path>
    </g>
    <g>
      <path d="M230.2,197.84c.25,2.33-1.43,4.42-3.76,4.67-.18,0-.36,0-.54,0-2.62-.03-4.78-2.07-4.94-4.69-.24-2.33,1.45-4.43,3.78-4.67h0c.17,0,.34,0,.51,0,2.62,.03,4.78,2.07,4.94,4.69h0Z" fill="#002346"></path>
      <path d="M226.17,203.02c-.1,0-.21,0-.31,0-2.83-.03-5.22-2.29-5.4-5.16-.13-1.24,.24-2.48,1.04-3.46,.8-.99,1.93-1.6,3.2-1.73,.21-.02,.41-.02,.61,0,2.83,.03,5.21,2.29,5.4,5.15,.27,2.59-1.61,4.93-4.2,5.21-.11,0-.22,0-.33,0h0Zm-1.16-9.39h-.21c-.99,.1-1.89,.59-2.52,1.37s-.92,1.76-.82,2.75c.15,2.36,2.1,4.22,4.45,4.24,.19,0,.34,0,.49,0,2.04-.22,3.52-2.07,3.3-4.12v-.02c-.15-2.34-2.1-4.2-4.45-4.22-.09,0-.18,0-.25,0h.01Z" fill="#0d2445"></path>
    </g>
    <g opacity=".2">
      <path d="M223.9,461.99h-59.44L213.46,61.99h47.89c4.16-.02,8.14,1.68,11,4.69l-48.45,395.31h0Z" fill="#fff"></path>
    </g>
    <g opacity=".2">
      <polygon points="148.07 461.99 134.68 461.99 183.75 61.97 197.14 61.97 148.07 461.99" fill="#fff"></polygon>
    </g>
    <rect x="255.57" y="108.45" width="15.09" height="1.56" fill="#002346"></rect>
    <rect x="255.87" y="112.92" width="15.09" height="1.56" fill="#002346"></rect>
    <rect x="256.18" y="117.38" width="15.09" height="1.56" fill="#002346"></rect>
    <path d="M265.42,455.18h-16.42l-1.16-16.42h16.43l1.15,16.42Zm-15-1.56h13.29l-.94-13.3h-13.24l.89,13.3Z" fill="#fff"></path>
    <path d="M183.84,456.59l-15-8.84,13.78-8.82,1.22,17.66Zm-12-8.9l10.26,6-.87-12-9.39,6Z" fill="#fff"></path>
    <path d="M218.99,455.18c-4.57-.07-8.35-3.59-8.73-8.15-.35-4.21,2.79-7.9,7-8.25h.69c4.58,.07,8.35,3.6,8.73,8.16,.37,4.18-2.72,7.86-6.89,8.23h-.02c-.26,.02-.52,.03-.78,0h0Zm-1-14.85c-3.31-.06-6.05,2.57-6.11,5.89,0,.24,0,.49,.03,.73,.31,3.74,3.41,6.64,7.16,6.69,3.35,.05,6.11-2.63,6.16-5.98v-.62h0c-.29-3.77-3.41-6.69-7.19-6.73l-.05,.02Z" fill="#fff"></path>
    <path d="M90.43,161.11c-.41,0-.75-.31-.78-.72l-3.81-51.88c-.03-.43,.29-.81,.72-.84s.81,.29,.84,.72h0l3.87,51.9c.02,.42-.3,.78-.72,.82h-.12Z" fill="#7490f6"></path>
    <path d="M85.9,99.28c-.41,0-.75-.3-.79-.71l-1-13.63c0-.44,.37-.78,.8-.78,.38,0,.71,.29,.77,.67l1,13.69c.03,.43-.29,.81-.72,.84h0l-.06-.08Z" fill="#7490f6"></path>
    <path d="M130.5,116.69l.36-1c.69,.48,1.5,.74,2.34,.75,1.06,0,1.56-.38,1.45-.89-.11-1.57-4.11-.52-4.3-3.13,0-1.1,.75-2,2.63-2,.82,0,1.62,.2,2.33,.61l-.33,1c-.59-.34-1.26-.53-1.94-.55-1.06,0-1.46,.41-1.42,.94,.09,1.46,4.09,.5,4.28,3,0,1.11-.75,2.05-2.64,2.05-.98,.05-1.95-.23-2.76-.78Z" fill="#002346"></path>
    <path d="M139.95,115l.17,2.43h-1.28l-.17-2.41-3-4.46h1.36l2.25,3.35,1.8-3.35h1.25l-2.38,4.44Z" fill="#002346"></path>
    <path d="M142.89,116.69l.38-1c.68,.48,1.48,.74,2.31,.75,1.08,0,1.57-.38,1.47-.89-.11-1.57-4.11-.52-4.3-3.13,0-1.1,.74-2,2.63-2,.82,0,1.62,.21,2.33,.61l-.34,1c-.58-.35-1.25-.54-1.93-.55-1.06,0-1.47,.41-1.42,.94,.09,1.46,4.1,.5,4.28,3,0,1.11-.75,2.05-2.64,2.05-.98,.04-1.95-.24-2.77-.78h0Z" fill="#002346"></path>
    <path d="M150.56,111.69h-2.27v-1.08h5.83v1.08h-2.28l.41,5.79h-1.28l-.41-5.79Z" fill="#002346"></path>
    <path d="M160.55,116.35l.08,1.08h-5.15l-.48-6.87h5.1v1.07h-3.74l.12,1.78h3.36v1.05h-3.32l.15,1.89h3.88Z" fill="#002346"></path>
    <path d="M168.37,117.43l-.33-4.55-2,3.75h-.56l-2.52-3.71,.31,4.51h-1.22l-.47-6.87h1l3.05,4.55,2.35-4.55h1.06l.49,6.87h-1.16Z" fill="#002346"></path>
    <path d="M173.84,114.43l-.27-3.87h1.27l.26,3.82c.11,1.42,.79,2,1.9,2s1.69-.6,1.56-2l-.26-3.82h1.25l.26,3.87c.32,1.38-.54,2.75-1.92,3.07h0c-.28,.07-.57,.09-.86,.05-1.65,.11-3.08-1.15-3.19-2.8v-.32h0Z" fill="#002346"></path>
    <path d="M187.33,113c.11,1.57-1,2.44-2.75,2.44h-1.57l.14,2h-1.31l-.47-6.87h2.82c1.86,0,3.03,.96,3.14,2.43Zm-1.28,0c0-.86-.68-1.36-1.8-1.36h-1.49l.19,2.72h1.49c1.12,0,1.67-.5,1.61-1.36Z" fill="#002346"></path>
    <path d="M188.44,110.56h2.94c2.02-.18,3.81,1.31,4,3.33v.1c.18,1.72-1.06,3.26-2.77,3.45-.25,.02-.49,.02-.74,0h-3l-.43-6.88Zm3.35,5.79c1.16,.14,2.22-.7,2.36-1.86,.02-.17,.02-.33,0-.5-.08-1.37-1.25-2.42-2.62-2.35h-1.69l.32,4.69,1.63,.02h0Z" fill="#002346"></path>
    <path d="M201.27,115.83h-3.43l-.56,1.57h-1.32l2.61-6.87h1.27l3.58,6.87h-1.35l-.8-1.57Zm-.49-1l-1.56-3-1.08,3h2.64Z" fill="#002346"></path>
    <path d="M204.93,111.69h-2.27l-.08-1.08h5.82l.08,1.08h-2.27l.39,5.79h-1.27l-.4-5.79Z" fill="#002346"></path>
    <path d="M214.92,116.35v1.08h-5.15l-.48-6.87h5l.08,1.07h-3.74l.13,1.78h3.32l.07,1.05h-3.31l.12,1.89h3.96Z" fill="#002346"></path>
    <polygon points="113.43 119.2 107.93 113.71 113.43 108.22 114.53 109.31 110.14 113.71 114.53 118.09 113.43 119.2" fill="#002346"></polygon>
    <rect x="109.05" y="112.92" width="16.36" height="1.56" fill="#002346"></rect>
    <path d="M228.92,81.28c.24,1.76-.99,3.39-2.75,3.63h-.46c-2.02-.04-3.69-1.57-3.9-3.58-.19-1.78,1.1-3.37,2.88-3.56h.39c1.97,.06,3.61,1.55,3.85,3.51h-.01Z" fill="#fff"></path>
    <path d="M230.39,79.42c-.38,0-.68-.3-.72-.67-.16-1.64-2.24-2.91-4.69-2.91s-4.34,1.94-4.24,2.91c.03,.34-.22,.63-.55,.67h-.06c-.38,0-.7-.29-.74-.67-.15-1.91,2.33-4.24,5.46-4.24s6,1.86,6.26,4.24c.04,.33-.2,.63-.53,.68h-.19Z" fill="#fff"></path>
    <path d="M231.52,76.32c-.38,0-.7-.29-.74-.67-.14-1.56-2.92-2.91-6.26-2.91s-5.78,2.05-5.68,2.95c.05,.32-.16,.61-.48,.67h-.13c-.38,0-.68-.3-.72-.67-.17-1.91,3-4.24,6.93-4.24s7.4,1.79,7.64,4.24c.04,.33-.19,.62-.51,.67,0,0-.05-.04-.05-.04Z" fill="#fff"></path>
    <path d="M232.64,73.23c-.37,0-.69-.29-.73-.66-.11-1.41-3.24-2.92-7.7-2.92s-7.26,2.17-7.19,2.92c.03,.32-.21,.61-.53,.65h-.08c-.37,0-.68-.29-.72-.66-.16-1.91,3.67-4.25,8.41-4.25,5.08,0,8.93,1.78,9.14,4.25,.03,.32-.21,.61-.53,.65,0,0-.07,.02-.07,.02Z" fill="#fff"></path>
    <polygon points="240.24 84.86 238.13 84.86 237.6 78.75 239.71 78.75 240.24 84.86" fill="#fff"></polygon>
    <polygon points="243.14 84.86 241.03 84.86 240.27 76.31 242.39 76.31 243.14 84.86" fill="#fff"></polygon>
    <polygon points="246.03 84.86 243.92 84.86 242.96 73.87 245.08 73.87 246.03 84.86" fill="#fff"></polygon>
    <polygon points="248.92 84.86 246.83 84.86 245.64 71.43 247.75 71.43 248.92 84.86" fill="#fff"></polygon>
    <polygon points="251.83 84.86 249.72 84.86 248.33 68.99 250.44 68.99 251.83 84.86" fill="#fff"></polygon>
    <polygon points="267.68 84.86 259.78 84.86 258.54 70.77 266.44 70.77 267.68 84.86" fill="#fff"></polygon>
    <polygon points="264.99 70.77 260.01 70.77 259.92 69.74 264.89 69.74 264.99 70.77" fill="#fff"></polygon>
    <g>
      <path d="M496.72,547.94s108.12,19.22,180.87-10.25c0,0,166.25-166,78.47-284.11,0,0-49.06-85.9-144.94-60.84l-152.1,274,37.7,81.2h0Z" fill="#fff"></path>
      <path d="M574.61,554.51c-42.88,0-77.37-5.98-77.98-6.08l-.26-.05-37.92-81.67,.12-.22,152.2-274.19,.21-.05c49.72-12.99,86.64,4.31,108.85,21.11,24.05,18.19,36.52,39.75,36.65,39.97,20.07,26.99,28.43,58.81,24.83,94.52-2.88,28.53-13.35,59.59-31.15,92.31-30.27,55.68-71.82,97.46-72.24,97.88l-.17,.11c-31.5,12.76-69.86,16.36-103.17,16.36h.03Zm-77.55-7.03c5.92,1.01,110.17,18.11,180.24-10.23,1.96-1.98,42.39-43.12,72.01-97.6,27.83-51.2,51.53-125,6.35-185.79-.16-.26-12.54-21.67-36.44-39.74-22-16.63-58.55-33.76-107.76-20.97l-151.87,273.59,37.48,80.73h0Z" fill="#002346"></path>
    </g>
    <g opacity=".2">
      <path d="M512.23,422.85s40.56,21.33,89.1,22.14c58.83,1,110.68-38.55,125.86-95.4,12.11-45.33,20.35-114.29-35.77-128.17-85.08-21.04-98.58,98.27-98.58,98.27,0,0-79.07,64.64-80.58,76.37-1.51,11.73-.03,26.79-.03,26.79h0Z" fill="#fff"></path>
    </g>
    <g>
      <path d="M519.75,572.27s6.31,13.23-13.23,21l-23.15,7.22s-12.32,3.6-21.95,9.62c0,0-49.22,30.09-48.51,1.37l106.84-39.21h0Z" fill="#fff"></path>
      <path d="M424.55,624.4c-2.72,0-5.17-.48-7.14-1.62-3.45-1.99-5.13-5.8-4.99-11.31v-.34l.33-.12,107.27-39.37,.2,.41c.09,.19,2.21,4.74,.08,10.17-1.88,4.81-6.45,8.68-13.58,11.51l-23.19,7.23c-.13,.04-12.38,3.65-21.83,9.57-1.09,.67-22.88,13.87-37.14,13.87h-.01Zm-11.14-12.57c-.05,4.94,1.46,8.33,4.5,10.08,11.82,6.82,42.94-12.04,43.26-12.23,9.57-5.98,21.95-9.64,22.07-9.67l23.14-7.22c6.81-2.71,11.19-6.39,12.98-10.92,1.62-4.11,.57-7.76,.12-8.97l-106.06,38.93h-.01Z" fill="#002346"></path>
    </g>
    <g>
      <path d="M497.5,541.31l.37-.52c.51-.72,1.5-.88,2.22-.37,.09,.07,.18,.14,.25,.22,4,4.45,15.93,18.45,19.41,31.63,0,0-.3,9.93-31.87,19.25-8.41,2.39-16.48,5.82-24.04,10.22,0,0-48.4,26.76-51.41,8.12,0,0-6.59-12.79,24.81-30.45,0,0,11.06-8.49,17.78-20.89l27.16-10,15.32-7.21h0Z" fill="#7490f6"></path>
      <path d="M422.26,616.96c-2.36,0-4.45-.35-6.12-1.17-2.32-1.13-3.73-3.07-4.18-5.78-.56-1.2-5.52-13.85,25.05-31.04,.05-.04,11-8.53,17.59-20.69l.09-.17,.18-.07,27.16-10,15.16-7.14,.29-.41c.32-.45,.8-.76,1.35-.85,.55-.09,1.1,.03,1.56,.36,.12,.08,.23,.18,.33,.29,4.73,5.27,16.11,18.91,19.52,31.84l.02,.07v.07c-.02,.42-.68,10.4-32.23,19.71-8.37,2.38-16.42,5.8-23.93,10.17-1.26,.7-26.94,14.79-41.84,14.79v.02Zm33.11-58.04c-6.7,12.26-17.71,20.8-17.82,20.88-30.69,17.26-24.73,29.7-24.67,29.82l.05,.15c.39,2.44,1.59,4.11,3.65,5.11,11.81,5.74,46.68-13.4,47.03-13.59,7.58-4.41,15.7-7.86,24.15-10.26,29.59-8.73,31.4-17.9,31.5-18.72-3.39-12.7-14.6-26.14-19.28-31.34-.05-.06-.11-.11-.17-.15-.24-.17-.53-.24-.81-.19-.29,.05-.54,.21-.71,.44l-.45,.63-15.44,7.27-27.02,9.95h0Z" fill="#002346"></path>
    </g>
    <g>
      <path d="M437.26,586.05c-.21,2.48-.76,4.92-1.62,7.25-1.91,5.18-5.29,9.7-9.72,13-10.61,7.9-30.28,18.89-53.79,14.71,0,0-20.14-.9-29.46-15.94,0,0-3.6-4.79,2.89-9.5,1.9-1.3,3.96-2.35,6.13-3.12l14.24-6.56c2.22-1,4.47-2,6.77-2.8,6.09-2.16,11.22-6.41,14.47-12,0,0,6.85-14.46,13.65-9.63l35.46,15.13s1.56,2.76,.98,9.46h0Z" fill="#7490f6"></path>
      <path d="M382.44,622.41c-3.37,0-6.84-.28-10.4-.92-.14,0-20.45-1.08-29.8-16.17-.03-.04-1.39-1.88-1-4.45,.31-2.09,1.67-4.01,4.02-5.72,1.95-1.33,4.05-2.4,6.26-3.19l14.2-6.54c2.39-1.08,4.54-2.03,6.81-2.82,5.97-2.12,11.02-6.3,14.2-11.78,.16-.34,4.45-9.29,9.79-10.68,1.59-.42,3.12-.12,4.53,.87l35.57,15.18,.08,.15c.07,.12,1.63,2.97,1.04,9.75-.22,2.52-.77,5.01-1.65,7.38-1.95,5.29-5.37,9.86-9.89,13.23-8.43,6.28-24.35,15.72-43.78,15.72h.02Zm15.48-61.46c-.37,0-.75,.05-1.14,.15-4.89,1.28-9.12,10.09-9.16,10.18-3.32,5.72-8.56,10.06-14.75,12.26-2.23,.78-4.37,1.72-6.73,2.79l-14.24,6.56c-2.17,.77-4.19,1.8-6.06,3.08-2.11,1.53-3.33,3.23-3.61,5.03-.33,2.15,.82,3.74,.84,3.75,9.1,14.68,28.88,15.73,29.08,15.74,23.79,4.23,43.71-7.34,53.47-14.61,4.37-3.25,7.67-7.67,9.55-12.77,.85-2.29,1.38-4.69,1.59-7.12h0c.49-5.61-.57-8.4-.85-9.03l-35.38-15.11c-.84-.6-1.7-.9-2.61-.9h0Z" fill="#002346"></path>
    </g>
    <g>
      <path d="M396.19,626.36c-32.4,6.08-47.71-5.57-53-11.24-1.76-1.87-3.1-4.1-3.91-6.54-3.34-10.21,6.23-13,6.23-13h.09c-6.49,4.71-2.89,9.5-2.89,9.5,9.32,15,29.46,15.94,29.46,15.94,23.51,4.18,43.18-6.81,53.79-14.71,4.43-3.3,7.81-7.82,9.72-13h.16c1.86,15.57-21.09,26.55-31,30.54-2.79,1.12-5.69,1.96-8.65,2.51Z" fill="#fff"></path>
      <path d="M378.98,628.56c-21.22,0-32.04-8.69-36.15-13.1-1.8-1.91-3.19-4.23-4.02-6.72-1.07-3.28-.97-6.17,.31-8.59,1.99-3.77,6.08-5,6.26-5.05l.14-.02h1.54l-1.16,.9c-2.12,1.54-3.34,3.24-3.62,5.04-.33,2.15,.82,3.74,.84,3.75,9.1,14.64,28.88,15.73,29.08,15.74,23.78,4.23,43.7-7.34,53.47-14.61,4.37-3.25,7.67-7.67,9.55-12.77l.12-.33h.95l.05,.44c1.9,15.89-21.26,27.02-31.31,31.06-2.82,1.13-5.76,1.98-8.75,2.54-6.41,1.2-12.16,1.71-17.3,1.71h0Zm-36.16-31.06c-1.02,.71-2.1,1.73-2.83,3.13-1.14,2.17-1.22,4.79-.24,7.8,.79,2.35,2.1,4.55,3.8,6.35,4.02,4.31,14.59,12.79,35.42,12.79,5.08,0,10.77-.5,17.13-1.7h0c2.92-.54,5.8-1.38,8.56-2.48,9.43-3.8,30.67-13.93,30.79-28.17-2.02,4.56-5.17,8.5-9.19,11.49-8.43,6.28-24.35,15.72-43.78,15.72-3.37,0-6.84-.28-10.4-.92-.14,0-20.45-1.12-29.8-16.17-.03-.04-1.39-1.88-1-4.45,.18-1.19,.69-2.32,1.54-3.4h0Zm2.78-1.41h0Z" fill="#002346"></path>
    </g>
    <g>
      <path d="M453.01,548.82l2,9.7s25.66,5,42.49-17.21l-7.21-10.82-37.28,18.33Z" fill="#f2b3c1"></path>
      <path d="M461.22,559.47c-3.81,0-6.23-.45-6.31-.46l-.33-.06-2.15-10.41,38.02-18.69,7.65,11.48-.21,.28c-11.74,15.49-27.89,17.86-36.68,17.86h0Zm-5.79-1.39c3,.46,26.03,3.26,41.46-16.79l-6.77-10.16-36.54,17.97,1.85,8.99h0Z" fill="#002346"></path>
    </g>
    <g>
      <path d="M471.93,336.81s-98.59-7.46-93.78,32.88c0,0-1.81,11.42,14.13,51.11l53.56,131.63s35.78,1.51,48.1-21l-46.6-133.49c4.54,.52,9.05,1.31,13.5,2.37l11.09-63.5Z" fill="#9d93fb"></path>
      <path d="M447.03,552.94c-.75,0-1.17-.02-1.21-.02h-.32l-53.68-131.94c-15.34-38.19-14.31-50.19-14.17-51.3-.77-6.58,1.15-12.33,5.69-17.07,20.31-21.21,85.85-16.51,88.63-16.3l.55,.04-11.28,64.57-.52-.12c-4.15-.99-8.4-1.75-12.65-2.27l46.41,132.94-.11,.2c-11.04,20.17-40.96,21.28-47.35,21.28h0Zm-.85-1.02c3.56,.07,35.71,.1,47.21-20.55l-46.79-134.03,.79,.09c4.37,.5,8.76,1.26,13.04,2.26l10.9-62.43c-6.5-.42-68.26-3.83-87.28,16.03-4.34,4.54-6.17,10.03-5.42,16.33v.14c-.02,.11-1.55,11.87,14.1,50.85l53.44,131.33v-.02Z" fill="#002346"></path>
    </g>
    <g>
      <path d="M535.38,283.05l-36.68-10.22s12-68.24,85.09-82.07l80,4.81s52.91,12,57.72,66.14c0,0,1.51,24.05-2.7,44.79,0,0-12.33-17.13-46.3-29.46,0,0-12.93,90.5-22.25,112.44,0,0-42.24-36.22-124.77-54.11l-4.51-15.34s4.18-6.34,14.4-36.98Z" fill="#7490f6"></path>
      <path d="M650.46,390.3l-.52-.44c-.42-.36-43.11-36.35-124.55-54l-.29-.06-4.66-15.85,.13-.19c.04-.06,4.24-6.65,14.18-36.37l-36.61-10.2,.08-.45c.03-.17,3.16-17.38,15.21-36.03,11.13-17.22,32.35-39.26,70.28-46.44h.12l80,4.81c.21,.04,13.56,3.15,27.31,12.86,12.7,8.97,28.37,25.58,30.87,53.74,.02,.25,1.47,24.37-2.71,44.93l-.23,1.12-.67-.93c-.12-.17-12.52-16.96-45.49-29.07-1.16,7.98-13.36,91.15-22.2,111.95l-.27,.63h.02Zm-124.57-55.37c76.65,16.67,119.03,49.55,124.17,53.72,9.17-22.67,21.83-110.8,21.96-111.7l.09-.61,.58,.21c29.39,10.67,42.81,25.12,45.85,28.77,3.89-20.2,2.5-43.37,2.48-43.6-2.47-27.75-17.9-44.12-30.42-52.97-13.59-9.61-26.78-12.68-26.91-12.71l-79.86-4.79c-37.53,7.12-58.53,28.92-69.54,45.96-10.88,16.83-14.43,32.45-15,35.25l36.74,10.24-.17,.5c-9.29,27.85-13.56,35.6-14.33,36.9l4.36,14.84h0Z" fill="#002346"></path>
    </g>
    <g>
      <path d="M672.48,277.04l-2.64,17.22s-33.87-27.07-45.71-35.13c-2-1.37-3.54-3.31-4.42-5.56-3.11-8-11.1-26.49-19.09-28.84,0,0-42.09-18-42.69-11.73,0,0-2.7,1.81,20.75,12.63,0,0-3.31,1.5-2.11,7.22,0,0-5.41,1.8-2.4,8.11,0,0-5.53,2.31-2.88,6.91,.69,1.17,1.69,2.14,2.89,2.79l24.82,13.7c1.81,1,3.24,2.55,4.1,4.43,7.32,16.18,45.23,94.84,84.11,81.61,0,0,13.23-8.42,31.57-43.9,0,0-15.04-19.24-46.3-29.46h0Z" fill="#f2b3c1"></path>
      <path d="M678.29,352.38c-35.96,0-68.96-68.61-75.64-83.39-.81-1.77-2.19-3.26-3.89-4.2l-24.82-13.7c-1.27-.69-2.34-1.72-3.08-2.97-.8-1.4-.99-2.74-.57-4,.62-1.83,2.38-2.95,3.22-3.4-.87-2.03-.99-3.83-.35-5.35,.71-1.66,2.13-2.5,2.83-2.83-.72-4,.71-5.98,1.68-6.83-9.35-4.35-20.14-9.88-20.34-12.4-.02-.22,.04-.39,.12-.52,.09-.48,.37-.88,.83-1.15,5.3-3.14,38.74,11,42.53,12.62,8.19,2.4,16.27,21.17,19.36,29.12,.85,2.17,2.31,4.01,4.24,5.33,10.79,7.35,40.22,30.76,45.06,34.61l2.6-16.95,.56,.18c31.05,10.15,46.39,29.43,46.54,29.63l.2,.25-.15,.28c-18.19,35.2-31.2,43.75-31.75,44.09l-.11,.05c-3.04,1.03-6.07,1.52-9.08,1.52h.01Zm-119.94-139.06c.16,.54,1.95,3.28,20.54,11.86l.99,.46-1,.45c-.12,.05-2.92,1.44-1.83,6.66l.09,.43-.42,.14s-1.89,.66-2.65,2.45c-.57,1.35-.39,3.02,.54,4.97l.23,.47-.48,.2s-2.46,1.06-3.13,3.03c-.33,.98-.17,2.04,.49,3.17,.64,1.09,1.58,1.99,2.7,2.6l24.82,13.7c1.89,1.04,3.42,2.7,4.31,4.66,7.18,15.88,44.94,94.37,83.43,81.36,.88-.59,13.77-9.77,31.2-43.39-1.88-2.26-16.83-19.39-45.3-28.86l-2.68,17.49-.68-.54c-.34-.27-33.99-27.15-45.68-35.11-2.09-1.43-3.68-3.43-4.6-5.79-3.04-7.82-10.95-26.24-18.77-28.54-10.24-4.37-37.56-15.15-41.69-12.7-.23,.14-.34,.3-.37,.54l-.02,.24-.05,.04h.01Z" fill="#002346"></path>
    </g>
    <g>
      <path d="M470.65,240.42c2.57,11.69,9.15,40.48,15.47,57.78,4.96,13.73,20.12,20.84,33.85,15.88,1.33-.48,2.63-1.07,3.87-1.76l.7-.4s4.81-9,10.82-28.87l-28.7-7.75-17.11-49.78c-.44-1.31-.36-2.74,.21-4,1.72-3.86,4-14.1-8.21-30.72-1.32-4.22-2.13-8.59-2.42-13-.02-.87-.75-1.56-1.62-1.54-.16,0-.31,.03-.46,.08-2.45,.8-5.79,4-2.72,16.31,0,0,2.71,11.12-5.11,4.81l-4.59-3c-2.14-1.4-4.05-3.11-5.68-5.08l-14.3-17.3c-1.09-1.35-2.97-1.76-4.53-1h0c-1.84,.92-2.58,3.15-1.66,4.99,.1,.2,.21,.38,.34,.56l11.89,16c.18,.26,.12,.62-.14,.81-.19,.14-.45,.14-.65,0l-20.71-13.88c-1.44-.97-3.39-.59-4.36,.85-.07,.11-.14,.23-.2,.35h0c-.65,1.3-.32,2.88,.79,3.81l18.93,15.9c.08,.06,.1,.16,.04,.24s-.16,.1-.24,.04l-15.82-9.69c-1.25-.77-2.89-.38-3.66,.88-.02,.04-.05,.08-.07,.12h0c-.62,1.16-.29,2.61,.77,3.39l20.13,14.83c.54,.4,.84,1.05,.78,1.72h0c-.09,1.07-1.02,1.86-2.09,1.78-.17,0-.34-.05-.5-.11l-14.31-5.14c-1.35-.49-2.84,.22-3.33,1.57-.01,.03-.02,.07-.03,.1h0c-.39,1.26,.23,2.62,1.44,3.14,6,2.65,23.76,10.63,37.3,18.89,3,1.81,5.12,4.76,5.89,8.18h0Z" fill="#f2b3c1"></path>
      <path d="M510.97,316.16c-3.9,0-7.79-.86-11.42-2.56-6.51-3.06-11.45-8.47-13.89-15.23-6.28-17.2-12.92-46.18-15.49-57.84-.73-3.27-2.8-6.13-5.66-7.86-12.46-7.6-28.68-15.08-37.24-18.86-1.45-.62-2.19-2.24-1.71-3.75l.04-.12c.28-.78,.85-1.4,1.59-1.75,.75-.35,1.59-.39,2.37-.11l14.31,5.14c.12,.04,.24,.07,.37,.08,.79,.07,1.49-.53,1.55-1.32,.04-.5-.18-.98-.58-1.28l-20.13-14.83c-1.25-.92-1.65-2.65-.92-4.03l.09-.15c.91-1.49,2.86-1.96,4.35-1.04l12.09,7.4-15.58-13.08c-1.3-1.09-1.67-2.9-.92-4.42,.07-.14,.15-.27,.23-.4,1.12-1.67,3.39-2.11,5.05-.99l20.71,13.88c.11-.03,.12-.09,.1-.12l-11.88-15.99c-.15-.2-.28-.41-.39-.63-.5-1.01-.58-2.15-.23-3.22,.36-1.07,1.11-1.94,2.12-2.44,1.78-.87,3.89-.4,5.14,1.13l14.3,17.3c1.6,1.93,3.47,3.61,5.57,4.98l4.59,3c1.93,1.56,3.36,2.16,4.05,1.72,1.11-.7,.77-4.05,.3-5.99-3.19-12.8,.54-16.08,3.05-16.9,.2-.06,.4-.1,.6-.11,.55-.02,1.08,.19,1.49,.57s.63,.9,.65,1.46c.28,4.32,1.08,8.63,2.37,12.78,12.4,16.92,9.88,27.42,8.21,31.15-.52,1.15-.59,2.44-.19,3.64l17.02,49.52,28.94,7.81-.15,.49c-5.96,19.69-10.81,28.87-10.86,28.96l-.07,.13-.83,.47c-1.26,.7-2.59,1.31-3.95,1.8-2.99,1.08-6.09,1.62-9.17,1.62h.01Zm-82.47-107.29c-.31,0-.61,.07-.89,.2-.51,.24-.89,.66-1.08,1.19-.35,1.1,.15,2.19,1.13,2.61,8.59,3.79,24.85,11.29,37.36,18.92,3.1,1.87,5.33,4.97,6.12,8.5h0c2.56,11.64,9.19,40.57,15.45,57.72,2.35,6.52,7.11,11.73,13.38,14.67,6.27,2.94,13.32,3.27,19.83,.91,1.31-.47,2.58-1.05,3.79-1.73l.57-.32c.59-1.15,5.09-10.15,10.57-28.16l-28.46-7.68-.09-.25-17.11-49.78c-.48-1.44-.4-2.99,.23-4.37,1.59-3.57,3.99-13.68-8.16-30.22l-.07-.15c-1.33-4.26-2.15-8.67-2.44-13.12,0-.31-.13-.58-.34-.78s-.48-.31-.77-.3c-.11,0-.21,.02-.32,.06-2.18,.71-5.39,3.7-2.39,15.71,.14,.59,1.33,5.76-.73,7.07-1.13,.72-2.82,.15-5.17-1.75l-4.55-2.97c-2.18-1.43-4.13-3.17-5.79-5.18l-14.3-17.3c-.95-1.17-2.57-1.53-3.93-.87-.77,.38-1.34,1.04-1.61,1.86s-.21,1.69,.17,2.46c.08,.17,.18,.33,.3,.48l11.89,16c.17,.25,.24,.53,.19,.82s-.21,.53-.44,.7c-.36,.26-.84,.26-1.21,.02l-20.72-13.88c-1.21-.81-2.85-.49-3.66,.72-.06,.09-.12,.19-.17,.29-.55,1.1-.28,2.41,.66,3.2l18.93,15.9c.27,.19,.34,.61,.13,.91-.22,.3-.64,.37-.94,.16l-15.79-9.67c-1.02-.62-2.35-.3-2.97,.71l-.06,.1c-.5,.94-.23,2.12,.63,2.75l20.13,14.83c.68,.5,1.05,1.33,.98,2.17-.11,1.34-1.28,2.34-2.63,2.23-.22-.02-.43-.06-.63-.14l-14.31-5.14c-.23-.08-.47-.12-.71-.12h0Zm15.52-8.02s.02,.02,.04,.03l-.04-.03Zm.36-.54l.03,.02s-.02,0-.03-.02Z" fill="#002346"></path>
    </g>
    <path d="M470.14,218.82c-8-6-13.85-.86-14.09-.63l-.67-.75c.06-.06,6.72-5.91,15.36,.58l-.6,.8h0Z" fill="#002346"></path>
    <path d="M481.44,221.61c-14.32-3.66-15.39-21-15.4-21.21l1-.05c0,.17,1.06,16.81,14.66,20.29l-.26,.97h0Z" fill="#002346"></path>
    <g>
      <path d="M650.23,389.48s-8.12,84.48-127.17,21.65c0,0,6.61,36.08-33.07,96.81l-42.7,59.22c-6.12,.33-12.25,.04-18.31-.86-8.17-1.21-17.54-3.84-24.68-9.36,0,0,42.28-80,47.2-153.64,.18-2.79,.26-5.58,.26-8.38-.05-11.94,1.66-59.82,31.91-61.66,0,0,27.66-3.3,49.61,5.41,0,0,48.77,.62,102.67,38.64,4.89,3.45,9.32,8.09,14.28,12.17h0Z" fill="#9d93fb"></path>
      <path d="M442.39,567.79c-4.51,0-9.02-.33-13.48-1-10.41-1.54-18.79-4.72-24.91-9.46l-.33-.26,.2-.37c.42-.8,42.29-80.75,47.14-153.44,.17-2.69,.26-5.42,.26-8.35-.06-14.11,2.1-60.32,32.38-62.16,.25-.03,27.94-3.2,49.74,5.41,2.46,.06,50.57,1.85,102.86,38.73,2.99,2.11,5.75,4.61,8.67,7.25,1.82,1.65,3.7,3.35,5.64,4.95l.21,.17-.03,.27c-.03,.27-2.82,26.68-25.67,39.01-22.85,12.33-56.95,6.77-101.38-16.52,.67,6.21,2.5,41.44-33.27,96.19l-42.85,59.43h-.24c-1.64,.1-3.29,.15-4.93,.15h-.01Zm-37.45-11c5.96,4.49,14.07,7.52,24.12,9.01,5.94,.89,11.98,1.18,17.97,.87l42.56-59.03c39.08-59.8,33.05-96.07,32.98-96.43l-.18-1.01,.91,.48c44.52,23.5,78.59,29.21,101.28,16.98,21.18-11.42,24.78-35.22,25.13-37.97-1.88-1.56-3.7-3.21-5.47-4.8-2.89-2.62-5.63-5.09-8.57-7.17-53.14-37.48-101.9-38.54-102.39-38.55l-.18-.04c-21.57-8.56-49.09-5.41-49.37-5.38-30.19,1.84-31.51,51.27-31.47,61.16,0,2.95-.09,5.7-.26,8.41-4.7,70.34-43.92,147.41-47.06,153.47h0Z" fill="#002346"></path>
    </g>
    <g>
      <path d="M404.3,556.94l-4.46,5.75s15,15.94,35.48,15.34l7.21-10.83s-23.2,1.17-38.23-10.26Z" fill="#f2b3c1"></path>
      <path d="M434.21,578.54c-19.9,0-34.58-15.36-34.73-15.51l-.29-.31,5.03-6.48,.39,.3c14.71,11.18,37.67,10.17,37.9,10.16l.99-.05-7.9,11.87h-.26c-.38,.02-.75,.02-1.13,.02h0Zm-33.7-15.9c2.2,2.18,16.21,15.31,34.54,14.89l6.53-9.81c-4.54,.06-23.94-.3-37.19-10.09l-3.89,5.02h.01Z" fill="#002346"></path>
    </g>
    <g>
      <path d="M606.03,174.13v13.92c-7.5-.4-15.01,.52-22.19,2.71,0,0,37.28,39.38,80,4.81,0,0-4.51-3.31-20.45-5.41l3-55.72-40.36,39.69Z" fill="#f2b3c1"></path>
      <path d="M627.09,210.23c-7.41,0-14.01-1.59-19.44-3.64-14.6-5.5-24.07-15.39-24.17-15.49l-.55-.59,.77-.24c7.09-2.17,14.43-3.09,21.84-2.76v-13.6l41.43-40.74-3.04,56.55c15.51,2.09,20.04,5.3,20.22,5.44l.52,.38-.5,.41c-13.3,10.76-26.07,14.28-37.07,14.28h-.01Zm-42.3-19.24c2.26,2.19,10.89,10.03,23.24,14.67,13.13,4.94,33.28,7.17,54.94-10.04-1.65-.89-7.08-3.32-19.64-4.97l-.46-.06,.02-.46,2.93-54.43-39.29,38.64v14.24l-.53-.03c-7.18-.38-14.32,.44-21.22,2.45h.01Z" fill="#002346"></path>
    </g>
    <g>
      <path d="M612.23,94.12h0c15.46,0,28,12.54,28,28v26c0,15.46-12.54,28-28,28h0c-15.46,0-28-12.54-28-28v-26c0-15.46,12.54-28,28-28Z" fill="#f2b3c1"></path>
      <path d="M612.23,176.62c-15.71,0-28.5-12.79-28.5-28.5v-26c0-15.71,12.79-28.5,28.5-28.5s28.5,12.79,28.5,28.5v26c0,15.71-12.79,28.5-28.5,28.5Zm0-82c-15.16,0-27.5,12.34-27.5,27.5v26c0,15.16,12.34,27.5,27.5,27.5s27.5-12.34,27.5-27.5v-26c0-15.16-12.34-27.5-27.5-27.5Z" fill="#002346"></path>
    </g>
    <g>
      <path d="M635.04,136.87c-.41-9.75-1.88-27.87-7.07-34.16,7.44,1.48,14.32,5.01,19.87,10.18l1.21,12s-6.59,2.77-7.51,17h0c-3.26,.7-6.36-1.69-6.5-5.02h0Z" fill="#002346"></path>
      <path d="M640.41,142.51c-1.29,0-2.56-.42-3.6-1.23-1.37-1.06-2.2-2.66-2.27-4.39h0c-.43-10.01-1.9-27.73-6.95-33.86l-.89-1.08,1.38,.27c7.54,1.5,14.49,5.07,20.11,10.3l.14,.13,1.27,12.56-.34,.14c-.06,.03-6.32,2.88-7.2,16.57l-.02,.38-.37,.08c-.41,.09-.83,.13-1.24,.13h-.02Zm-4.87-5.66c.06,1.44,.75,2.76,1.88,3.64,1.04,.81,2.35,1.15,3.65,.98,.9-12.38,6.06-16.08,7.45-16.87l-1.16-11.47c-5.14-4.75-11.42-8.07-18.22-9.65,4.61,7.12,5.98,23.76,6.39,33.37h0Z" fill="#0d2445"></path>
    </g>
    <g>
      <ellipse cx="645.62" cy="135.09" rx="11.88" ry="7.97" transform="translate(337.9 718.52) rotate(-74.01)" fill="#f2b3c1"></ellipse>
      <path d="M643.86,147.23c-.56,0-1.12-.08-1.66-.23-2.21-.63-3.92-2.49-4.8-5.22-.86-2.67-.84-5.86,.07-9.01,.9-3.15,2.58-5.87,4.72-7.68,2.2-1.85,4.63-2.52,6.84-1.89,4.49,1.29,6.61,7.67,4.73,14.23-.9,3.15-2.58,5.87-4.72,7.68-1.66,1.4-3.45,2.12-5.17,2.12h-.01Zm3.5-23.27c-1.49,0-3.06,.65-4.53,1.89-1.99,1.68-3.55,4.23-4.4,7.19h0c-.85,2.96-.87,5.95-.07,8.43,.78,2.41,2.24,4.03,4.12,4.57,1.88,.54,3.98-.06,5.92-1.69,1.99-1.68,3.55-4.23,4.4-7.19,1.73-6.03-.09-11.86-4.05-13-.45-.13-.91-.19-1.38-.19h0Z" fill="#002346"></path>
    </g>
    <g>
      <path d="M583.51,107.48c41.94-16.99,64.33,5.41,64.33,5.41-.74-24.34-17.16-31.12-30.05-32.68-10.42-1.26-21.04,1.09-29.91,6.71-7.42,4.7-13.21,11.76-4.38,20.56h0Z" fill="#002346"></path>
      <path d="M648.38,114.13l-.89-.89c-.22-.22-22.67-21.96-63.79-5.3l-.31,.12-.23-.23c-3.39-3.38-4.92-6.78-4.56-10.11,.43-3.93,3.47-7.71,9.02-11.23,8.92-5.65,19.66-8.06,30.24-6.78,13.5,1.63,29.75,8.71,30.49,33.16l.04,1.26h-.01Zm-34.92-13.47c19.08,0,30.65,8.41,33.84,11.07-1.19-22.8-16.67-29.47-29.56-31.03-10.35-1.25-20.85,1.11-29.58,6.63-5.28,3.35-8.16,6.88-8.56,10.49-.32,2.94,1.03,5.99,4.04,9.06,11.37-4.57,21.34-6.23,29.82-6.23h0Z" fill="#0d2445"></path>
    </g>
    <rect x="580.33" y="236.64" width="1" height="14.73" transform="translate(116.22 669.49) rotate(-65.27)" fill="#002346"></rect>
    <rect x="583.07" y="228.2" width="1" height="15.16" transform="translate(140.46 682.77) rotate(-67.25)" fill="#002346"></rect>
    <rect x="584.88" y="220.98" width="1" height="15.16" transform="translate(148.23 680.01) rotate(-67.25)" fill="#002346"></rect>
    <g opacity=".2">
      <polygon points="369.43 254.79 400.39 333.56 531.17 333.56 503.51 253.89 369.43 254.79" fill="#fff"></polygon>
    </g>
    <g>
      <path d="M533.28,334.46h32.17c1.16,0,2.1,.94,2.1,2.1h0c0,1.16-.94,2.1-2.1,2.1l-32.03,.08-.14-.08v-4.21h0Z" fill="#fff"></path>
      <path d="M533.3,339.24l-.52-.29v-4.5h.5v-.49h32.17c1.43,0,2.6,1.17,2.6,2.6s-1.17,2.6-2.6,2.6l-32.15,.08h0Zm.48-4.28v3.28l31.67-.08c.88,0,1.6-.72,1.6-1.6s-.72-1.6-1.6-1.6h-31.67Z" fill="#002346"></path>
    </g>
    <g>
      <polygon points="369.43 254.79 400.39 333.56 531.17 333.56 503.51 253.89 369.43 254.79" fill="#7490f6"></polygon>
      <path d="M531.87,334.06h-131.82l-31.35-79.77,135.17-.91,.12,.34,27.89,80.33h-.01Zm-131.14-.99h129.74l-27.31-78.67-132.99,.89,30.57,77.77h-.01Z" fill="#002346"></path>
    </g>
    <g>
      <path d="M369.43,254.79l2.7-3.6,133.6,.58,31.1,86.7h-136.69c-1.35,0-2.45-1.1-2.45-2.45h0c0-1.35,1.1-2.45,2.45-2.46h131l-27.63-79.67-134.08,.9h0Z" fill="#fff"></path>
      <path d="M537.54,338.97h-137.4c-1.63,0-2.95-1.32-2.95-2.95s1.32-2.95,2.95-2.96h130.3l-27.28-78.67-134.73,.9,3.46-4.61h.25l133.95,.58,31.46,87.7h-.01Zm-137.4-4.9c-1.07,0-1.95,.88-1.95,1.96s.88,1.95,1.95,1.95h135.98l-30.74-85.7-133-.58-1.94,2.59,133.43-.9,27.98,80.67h-131.71Z" fill="#002346"></path>
    </g>
    <path d="M535.36,283.55c-.06,0-.11,0-.17-.03-.26-.09-.4-.38-.31-.64l12.54-35.51c.09-.26,.38-.39,.64-.31,.26,.09,.4,.38,.31,.64l-12.54,35.51c-.07,.21-.27,.33-.47,.33h0Z" fill="#002346"></path>
    <path d="M672.48,277.54h-.09c-.27-.05-.45-.31-.41-.58l6.59-37.87c.05-.27,.3-.45,.58-.41,.27,.05,.45,.31,.41,.58l-6.59,37.87c-.04,.24-.25,.41-.49,.41h0Z" fill="#002346"></path>
    <path d="M447.34,398.44h-.09c-.21-.04-20.75-3.93-32.73-20.9-.16-.23-.11-.54,.12-.7,.23-.16,.54-.1,.7,.12,11.74,16.63,31.89,20.46,32.1,20.5,.27,.05,.45,.31,.4,.58-.04,.24-.25,.41-.49,.41h-.01Z" fill="#002346"></path>
    <path d="M596.8,434.66c-1.35,0-2.66-.03-3.94-.08-20.12-.81-35.08-7.46-35.23-7.52-.25-.11-.36-.41-.25-.66s.41-.36,.66-.25c.15,.07,14.96,6.64,34.9,7.44,18.36,.74,44.97-3.43,67.41-27.43,.19-.2,.5-.21,.71-.02,.2,.19,.21,.5,.02,.71-21.15,22.63-45.96,27.83-64.28,27.83v-.02Z" fill="#0d2445"></path>
    <g>
      <ellipse cx="606.23" cy="108.12" rx="28" ry="14" fill="#002346"></ellipse>
      <path d="M606.23,122.62c-15.71,0-28.5-6.5-28.5-14.5s12.79-14.5,28.5-14.5,28.5,6.5,28.5,14.5-12.79,14.5-28.5,14.5Zm0-28c-15.16,0-27.5,6.06-27.5,13.5s12.34,13.5,27.5,13.5,27.5-6.06,27.5-13.5-12.34-13.5-27.5-13.5Z" fill="#0d2445"></path>
    </g>
  </g>
  <g>
    <g>
      <path d="M750.29,546.35s2.01-45.95-3.04-68.67c-.85-3.83-2.66-7.38-5.26-10.31-10.29-11.57-42.22-46.84-69.34-69.59,0,0,25.41-5.29,49.4,9.18v15.53l5.3-12.35s29.64,17.65,26.81,65.99l-1.41,46.58-2.47,23.65h0Z" fill="#7cd295"></path>
      <path d="M749.68,546.32c.02-.46,1.95-46.13-3.02-68.51-.82-3.72-2.59-7.19-5.12-10.04-12-13.5-42.77-47.29-69.27-69.52l-.98-.82,1.25-.26c.26-.05,25.92-5.17,49.85,9.25l.3,.18v12.87l4.39-10.24,.61,.36c.3,.18,29.93,18.4,27.12,66.54l-1.41,46.62-2.47,23.65-1.23-.09h-.02Zm-28.24-120.83v-18.18c-20.38-12.13-41.94-9.95-47.37-9.14,26.33,22.29,56.52,55.44,68.38,68.79,2.67,3.01,4.54,6.67,5.4,10.59,3.18,14.32,3.56,38.03,3.41,53.54l.88-8.4,1.41-46.59c2.55-43.58-21.77-62.19-25.92-65.04l-6.19,14.44h0Z" fill="#002346"></path>
    </g>
    <g>
      <path d="M700,584.64c0,22.29,15.97,41.38,37.91,45.33h0c25.06,4.47,49-12.23,53.47-37.29,.47-2.65,.71-5.34,.72-8.04,.02-11.26-4.11-22.14-11.59-30.56l-49.89-.35-18.6-.14c-7.75,8.48-12.04,19.55-12.02,31.04h0Z" fill="#7490f6"></path>
      <path d="M737.8,630.57c-22.26-4-38.41-23.32-38.41-45.94-.02-11.67,4.31-22.84,12.18-31.46l.19-.2,69.04,.49,.18,.21c7.59,8.54,11.76,19.54,11.74,30.97,0,2.72-.25,5.47-.73,8.15-2.19,12.28-9.03,22.98-19.27,30.12-7.93,5.53-17.16,8.41-26.62,8.41-2.75,0-5.53-.24-8.3-.74h0Zm-25.51-76.37c-7.55,8.36-11.69,19.15-11.67,30.42h0c0,22.02,15.73,40.83,37.4,44.72,11.96,2.13,24.03-.52,34-7.47,9.96-6.95,16.63-17.36,18.76-29.32,.47-2.61,.7-5.28,.71-7.93,.02-11.03-3.98-21.65-11.25-29.94l-67.94-.48h-.01Z" fill="#002346"></path>
    </g>
    <g>
      <path d="M755.78,553.92v-4.17c-.06-5.5,2.12-10.78,6.04-14.64l69.76-68.56s-33.56-4.24-49.53,9.13l-.33,18.24-5.53-14.34s-29.98,12.71-27.37,74.29l6.97,.05h0Z" fill="#7cd295"></path>
      <path d="M748.22,554.48l-.02-.59c-2.59-61.3,27.44-74.76,27.75-74.89l.59-.25,4.63,11.99,.28-15.37,.22-.18c15.99-13.38,48.62-9.44,50-9.27l1.26,.16-70.67,69.46c-3.78,3.72-5.92,8.89-5.85,14.2v4.8l-8.18-.06h-.01Zm34.44-78.51l-.39,21.11-6.43-16.65c-4.1,2.18-28.61,17.58-26.44,72.83l5.76,.04v-3.55c-.07-5.64,2.2-11.13,6.22-15.08l68.83-67.64c-6.26-.59-33.66-2.43-47.55,8.94h0Z" fill="#002346"></path>
    </g>
    <g>
      <path d="M739.35,553.8l-3.82-31.21c-.27-2.22-1.24-4.3-2.77-5.94-9.99-10.7-49.52-52.57-72.46-71.58,0,0,26.47-2.47,50.11,9.52l.7,16.59,5.3-12.71s25.76,14.48,26.47,64.89v30.41l-3.53,.02h0Z" fill="#7cd295"></path>
      <path d="M734.92,522.66c-.26-2.11-1.16-4.04-2.61-5.59-7.96-8.52-48.88-52.03-72.41-71.52l-1.15-.95,1.49-.14c.27-.02,26.92-2.35,50.45,9.59l.32,.16,.6,14.17,4.5-10.79,.61,.34c.26,.15,26.08,15.23,26.78,65.43v31.02l-4.7,.03-3.88-31.76h0Zm7.34,.72c-.63-45.16-21.73-61.41-25.56-63.99l-6.09,14.6-.81-19c-19.91-9.98-42-9.68-47.92-9.39,23.75,19.98,63.49,62.24,71.33,70.64,1.63,1.74,2.64,3.92,2.93,6.29l3.75,30.67,2.37-.02v-29.79h0Z" fill="#002346"></path>
    </g>
  </g>
</svg>
